<?xml version="1.0" encoding="utf-8"?>
<!-- Generator: Adobe Illustrator 23.0.1, SVG Export Plug-In . SVG Version: 6.00 Build 0)  -->
<svg version="1.1" id="Слой_1" xmlns="http://www.w3.org/2000/svg" xmlns:xlink="http://www.w3.org/1999/xlink" x="0px" y="0px"
	 viewBox="0 0 512 512" style="enable-background:new 0 0 512 512;" xml:space="preserve">
<style type="text/css">
	.st0{fill:#FFFFFF;}
	.st1{fill:#FFDA00;}
	.st2{fill:#1D1D1B;}
</style>
<g id="Слой_2">
	<path class="st0" d="M117.2,360.4c5-0.3-0.4-1-2.8,0.1C115.3,360.4,116.1,360.4,117.2,360.4z M185.7,354.3c0.2-1.6,2.2-0.6,3.2-1
		C188.2,355.8,187.1,353.4,185.7,354.3z M180.7,354.1c0.3-0.5,2.3-2,2.2-0.5C182.6,354.3,181.5,354,180.7,354.1z M207.7,352
		c-0.7-1.9,1.5-0.3,1.9-1.4C210.8,352.3,207.8,350.9,207.7,352z M87.9,357c-0.4,1-1.9,0.2-2.7,0.6C85.6,356.6,87.1,357.3,87.9,357z
		 M226.1,346.1C227.1,344.5,229.5,346.6,226.1,346.1L226.1,346.1z M228.9,337.1c1.9-2.6,5.1,0.1,8-0.8
		C235.8,337.3,231.3,336.7,228.9,337.1z M228.6,336.3c-2,1.2-4.6,0.3-6.3,0.3C223.6,335.2,227,336.4,228.6,336.3z M237.6,324.9
		c-0.4,1-1.9,0.2-2.7,0.5C235.3,324.4,236.8,325.2,237.6,324.9z M229.9,320.5c-0.5,0.8-2.4-0.5-2.5,0.5
		C226.5,319.7,229.5,320.2,229.9,320.5z M226.9,320.3c-2.5,1.5-7.2-0.2-10.5,0.1c-0.7-0.3-1.3,2.5-1.5,0.5
		C217.4,318.6,223.8,320.3,226.9,320.3z M65.4,314c0.1-0.5,1.7-0.2,0.5-0.9c0.3-2,0.7,0.6,1.5,0.4C67.2,314.5,65.9,314.7,65.4,314z
		 M65.6,312.7c-1,0.2-0.6-2.9,0.4-2.1c0,0.5-0.5,0.3-0.5,0.9C65.8,312,65.7,312.1,65.6,312.7z M62.6,308.6c0.3-0.6,0.2-1-0.3-1.3
		c0.8-0.8,1.9-0.7,2.7-0.5C64.2,307.9,63.7,308.6,62.6,308.6z M235.5,299.5c0.4-0.8,0-1.5-0.8-1.2c2.3-0.5,4.5,0.6,6.5-0.3
		C240.4,300.6,236.9,298.8,235.5,299.5z M238.9,297.3c0.1-0.4,0.3-0.8,0-0.8c0.4-0.5,2.9-1.3,3,0.3
		C241,296.1,239.9,296.9,238.9,297.3z M230.4,285.8c-0.4,0.8-2.4,0.5-2.5-0.7C228.6,285.4,229.7,285.3,230.4,285.8z M214.5,278.5
		c0.6-1.4,1.2-0.2,2.2-0.9C216.8,279.2,215.1,278.1,214.5,278.5z M221.5,273.1c0.1-1.5,1.2,0.1,2.2-0.5
		C223.1,273.3,222.2,273.5,221.5,273.1z M113,272.5c1.6-2,10.1-2.3,12-1C120.6,272.7,116.6,271.6,113,272.5z M108.9,271
		c0.9-0.6,1.9,1,2.3-0.1C112.3,271.8,108.7,272.6,108.9,271z M97.4,272.3c-3.3-0.4-7.4,0.1-10.8,0.1c-0.1-0.9,0.9-0.2,1.2-0.5
		c-2.1-1.3-5.6,0.2-8.3-0.9c5.9-1.2,12.1,0.9,17.8-0.4C97.4,271.2,97.4,271.8,97.4,272.3z M91.1,356.1c-5.9-0.3-10.7-0.9-17.1,0.3
		c0.3-1.3,1.9-0.8,3-1c-1.8-3-7.2,0.6-8.7-3c-0.9,0.3-1.1-0.7-2-0.3c0.2-1,1.2-0.8,1.4-1.8c-0.4-3.4-3.6-1.5-4.7-3.6
		c0.8-0.3,2.7,1.1,4.1,1.1c1.5-4.3-3-11.2-0.4-15.2c-0.9-1.7,0.4-2.4-0.5-5.1c0-1.1-1.4,0.5-1.1-1.2c0.6,0,0.4-0.5,0-0.4
		c0.2-1.4,0.5-0.2,1.2-0.5c0.4-0.8-0.5-2.6,0.6-3c-0.1-0.9-1.1-0.1-1.3-0.8c0.2-0.9,0.2-2,0.9-2.2c-0.6-0.5-0.2-0.8-0.6-1.2
		c1.1-1.5,1.5-4.3,2.4-6.9c-0.2-0.9-1.4-0.1-2-0.3c0.2-0.6,1.8-0.8,0.2-0.9c0-1.1,0.8-0.9,1.5-0.9c-0.7-1.2-0.4-1.6-1.6-2
		c-0.1-1,0.3-1.3,0.4-2.1c-2.2-1.8-0.7-4.1-1.6-7.6c-0.6,2-2.7,2.4-4.2,1.9c0-0.9,1.1-0.2,1.2-0.9c-2.8-0.7,1.7-2,3.2-1.8
		c-0.7-0.7-0.2-1.1-0.6-2.5c0.3,0,0.7,0,1,0c0.1-2.3-1.9-0.8-1.7-3.3c0.5-0.2,0.5,0.6,0.6,1.2c0.9,0,1.8-0.1,2.8-0.1
		c0.4-1.6,0.2-1.9,0.6-3c-0.2-0.9-1.2-0.1-1.8-0.3c-0.7-0.5,1.2-0.5,1.5-0.9c-1.1,0-0.9-2.6-1.9-2.9c0-0.9,0.6-0.9,1.2-0.9
		c-0.5-0.5-1.1-0.8-1.3-1.6c-0.2,0.4-0.7,0.3-0.7,0.9c-0.7-0.8,1.3-0.9,0.6-3c0.8,0.3,3.2,1.4,3.1,2c4.6-1.4,7.6-4.4,12.8-5.7
		c4.6-1.1,11-1,16.2-2c12.3-2.3,25.8,0.2,38.6-2.2c-0.1-0.6-0.6-0.3-1-0.4c0.5-1.6,1.8-1.9,3.4-1.9c0,0.4-0.3,0.3-0.5,0.4
		c11.4,2.4,23.3,2.3,37,1.3c0.5-0.1,0.1-1.4,0.4-1.7c2.5,1.2,11.7,2.5,15.8,0.1c-0.1,0.4-0.2,0.8-0.5,0.9c9.5,0.2,19.6,0.3,29.9,1.2
		c0,1.1-0.8,0.9-1.5,0.9c0.7,0.6,1.7,0.8,2.8,0.7c-2.2,1.8-6.6-1.7-9,0.8c0.9,1.4,1.8-0.1,3,0.7c-0.8,0.8-2.5,0.4-3.5,1
		c0.1,0.5,0.5,0.3,0.8,0.4c-1,1.2-4.5,1.4-6.2,1.6c2.7,0.5,4,1,7.1,1c0.1,1.9-0.8-0.2-1.5,0.5c1.1,1,2.6,1.2,4.1,1.5
		c-0.5-1.4-1.3-0.2-2.3-1.2c0.5-1,2.2-0.3,3.2-0.6c-0.9,0.6-0.4,0.9-0.7,2.1c0.9,0.2,3.7,1.1,4.8,0.6c0,1.8,2.6,1.7,4.3,1.5
		c-1.1,0.7-0.4,1.4,0.8,1.2c0.1,0.7-0.2,0.7-0.2,1.3c1.5,0.5,2.7,1.1,3.6,1.5c-3.3,0.9-7.4-0.8-12.8-0.7c0,0.4,0.3,0.3,0.5,0.4
		c-1.4,0.6-4.2-0.7-6-0.2c2.4,2.4,6.7,0.3,8.3,1.3c-0.1,0.9-1.2,0.3-1.2,1.3c0.5,0.7,1.6,0.4,2.3,0.7c-2.4,1.1-6.6-0.5-9,0.8
		c0.1,0.9,1.6-0.1,0.8,1.2c1-0.4,2.7-1.1,3-0.1c0.7,1.8-1.8,0.4-2.5,0.5c2.3,2,6.5,1.6,10.9,1.6c-1.4,1.9-3.3,0-5.7,0.7
		c0.2,1.5,1.9,0.5,2.8,0.7c0,0.6-1,0.8,0,0.8c-0.3,0.9-1.3,0.1-2.2,0.9c0.8,0.9,2.2,0.8,3.1,1.6c-1.1-1.5,0.2,0.1,0.5-0.9
		c0.3,0.2-0.2,1.9,1.1,1.2c0,0.9-1.1,0.2-1.5,0.5c0.1,1.3,1.6,0,1.6,1.6c-0.4,0.1-0.7-0.7-0.8,0c0.7,0.9,2.4,0,3.5,0.3
		c-0.3,0.6-1.1,0.7-1.7,0.9c0.3,0.8,1.3,0.3,1.8,0.8c-1.5,0.7-4.5-1-5.8,0.3c1,0.6,1.8,0,3.3,0.3c-1.1,0.1,0.2,2.9,0.6,2.1
		c0.7,0.5-0.6,1.2-1.2,0.9c0.3,0.7,0.8,0.9,1.5,0.8c0.7,0.7-1.5,0.4-2,0.5c0.5,0.9,2,0,2.5,0.7c0.3,1.3-0.5,0.8-1,0.9
		c0.1,0.9,1.1,0.1,1.5,0.4c0.9,0.3-2.1,1.3-1.8-0.3c-0.6,0.7,0.6,1.8,1.1,2.1c-1.5,0.3-4.4,0-5.5,0.7c1.8,1.5,6.4-1.3,7.1,0.9
		c-0.3,1-1.7,0.2-2.5,0.5c0,0.9,0.9,0.2,1.3,0.4c0.6,1.2-2.3-0.3-2.2,0.5c-0.6-0.2,0.2-1.2,0.7-0.9c-2.4-1.2-3.3-0.2-5.6-0.6
		c0.1-1,1.4,0,1.2-1.3c-1.3,0.4-2,2.2-3.5,1.4c1.5,1.2,2.4,0.7,4.3,1.1c-0.8,1.4-2.2,1.3-3.5,1c0.9,1.1,2.6,0.7,4,0.7
		c-2.6,2.6-7.2,1.1-9.8,4.3c1.1,0.3,1.4,0.8,3,0.7c-0.6,0.9-2.3,1.9-2.9,1.4c3.7,2.1,8.9,1.7,13.9,1.5c-1.6,1.2-0.7,0,0.1,1.7
		c-1.2,0.1-2.3,0.1-3.5,0.2c2,1.5,2.9,0.2,4.8,0.2c0,0-0.3,0.5-0.5,0.4c1.1,0,2.5-0.1,4.3,0.7c-2.9,1.1-7.5-0.8-11.6-0.3
		c0.5,1.6,2.6,0.3,3.6,1.1c0.5,0.9-4.1,0.9-5.5,1.1c1.1,1.8,2.6,2.3,5.9,1.9c0.6-0.3-0.3-0.6,0.2-1.3c1.2-0.1,2.3-0.1,3.5-0.2
		c0,0.5-0.4,0.4-0.7,0.5c0.1,0.9,1.1,0.1,1.5,0.4c0.6-0.3-0.3-0.6,0.2-1.3c1.4-0.8,1.9,1.6,2.8,0.3c-1.2,1-5,2-7.4,2.4
		c1.6,0.9-1.4,1.5-0.5,0c-1.7,1.1-2.8,0.7-5.5,1.1c0.8,1.8-2.2-0.1-3.5,1c0,0.4,0.3,0.3,0.5,0.4c-1.4,0.4-3.7,1.3-6,1.5
		c2.6,0.7,5.1-0.6,7.8-0.4c-1.6,1.2-4.8,2-6.4,2c0.2,1.9,1.3,0.2,1.3,1.6c-1.4,0.5-2.1,0.1-3.5,1c2.8,1.7,7.3,0.1,10.8,0.4
		c-0.4,1.5-1.3,0.4-0.4,2.1c-1.9-1.7-3.6,0.1-6.5,0.3c2.9,1,5.6-0.5,7.8,0.1c-2,1.3-5.1,0.9-7.2,2c-0.4,0.2,0.1,0.5,0.1,1.3
		c-15,4.2-26.6,3.7-43,5.3c-0.1,0.7,0.2,0.8,0.5,0.8c-0.4,0.8-2.4,0.5-2.5-0.7c-1.9-0.3-6.3,1.2-5.5,1.1c-20.9,3-48.4,6.9-71.2,3.6
		C90.5,357.4,91.3,357,91.1,356.1z M67.6,319.4c-1-0.2-0.7,1.8-0.2,2.1C68,320.6,67.2,320.2,67.6,319.4z M220.1,286.7
		c2,0.2,3.9,0.4,5.8,0.6C224.3,285.3,222.2,286.5,220.1,286.7z M220.7,344.3c0-0.3,0-0.6,0-0.8c0.2,0.1,0.2-0.2,0.2-0.4
		c0.5,1,0.3,0.4,1.3,0.4C222.7,343.7,221.2,344.1,220.7,344.3z M234,321.2c-0.8,0-2.6,0.7-3.5-0.3C231.2,320.1,233,321,234,321.2z
		 M229.9,315c-0.1,1-1.4,0.2-2,0.5c-1.1-0.7,1.8-0.2,0.7-0.9C228.6,313.9,229.6,315,229.9,315z M241.1,313.3
		c-1.4,1.3-3.3-0.4-5.3,0.2C236.9,311.4,239.2,314.2,241.1,313.3z M235.6,312.7c-1.3,1.3-3.8,0.3-5.8,0.3
		C230.7,311.7,233.4,313.5,235.6,312.7z M232.7,304.7c-0.9,1.3-2.4-0.2-3.3-0.3C230.3,303.8,231.8,305.1,232.7,304.7z M220.7,293.9
		c-0.6,1.1-2.2,0.2-2.3-1.2C218.9,293.5,219.8,293.8,220.7,293.9z M127.3,271.8c0.3-3.1,3.3-0.2,4-1
		C130.4,272.1,128.5,270.9,127.3,271.8z M108.6,270.6c-0.4,1.6-4.1,0.9-3.8-0.3c-0.8,0.1-1.1,1-2,0.9
		C104.3,268.7,106.2,271.3,108.6,270.6z"/>
	<path class="st0" d="M291.1,265.9c1.8-0.6,3.2,1.2,4.3,0.2C294.1,266.1,291.7,264.6,291.1,265.9z M262.7,266.9c-3.2,1-6,0.5-7.9,1
		c-0.5-1.4,5.5-0.6,6.1-0.9C261.4,267,262.1,267,262.7,266.9z M204.4,273.9c12.3-3.2,29.9-3.9,43.6-6.1c-0.5,1.3-3,1-4.9,1.2
		C230.1,270.8,216.4,272.6,204.4,273.9z M236.4,270.3c1.7,1.2,3.6,1,6.8,0.8c1.1,0.6-1.9,0.4-2.7,0.5c-1.9,0.2-3.7,0.7-4.6,0.2
		C236,271.2,236.3,270.8,236.4,270.3z M171.3,273.7c-1,0.7-2.8,0.4-4,0.8C168.1,272.9,170.3,273.5,171.3,273.7z M219.7,272.7
		c-0.2,1.1-1,1.1,0.6,1c0.2,0.5-2.6,0.6-3.6,0.8c0.1-0.3,0.2-0.6,0.6-0.7c-0.1-0.4-0.6-0.3-0.9-0.3
		C216.9,272.7,219,273.4,219.7,272.7z M281.8,271.2c0.5-0.7,1.6-0.8,2.7-0.8c1.4,0.5-2.3,0.2-0.9,0.7
		C283.4,272.1,282.7,270.7,281.8,271.2z M304.2,270.8c0.4-0.8,2.1-0.2,3-0.5C306.8,271.1,305.1,270.5,304.2,270.8z M311.5,270.5
		c1.1,1.4-1.9,1.1-3,1.2C309.2,270.8,310.9,270.5,311.5,270.5z M320,337.6c1.3,0,0,2.2,0.1,3.2C318.6,340.2,320.6,339.3,320,337.6z
		 M253.3,348.8c-0.5,0.8-2.3,0.2-3.4,0.5C250.9,348.3,251.9,348.7,253.3,348.8z M200.8,354.5c-0.6,1.1-4.4-0.1-6.4,0.2
		C196.1,353.2,198,354,200.8,354.5z M190.1,354.9c-0.5,0.8-2.3,0.2-3.4,0.5C187,354.3,189.3,354.3,190.1,354.9z M178.1,355.6
		c0.3-0.5,3.2-1,3.1,0.2C180.2,355,178.9,356.2,178.1,355.6z M304.6,264.8c0.4-0.6,1.6,1,2.5,1c-0.2,1.3-1.6-0.8-1.8,0.4
		C304.4,265.9,305.8,264.8,304.6,264.8z M85.3,285.8c-0.7-1.4-2.3-1.5-3.5-2.3c2.5-3,8.1,0.5,10.6-2.8c5.4,0.5,12.5,0.1,16.8-1.6
		c0-0.8-1.1-0.1-1.5-0.3c10.2-1.1,21.9,1.3,33.7,0.2c2.3-0.1-1.5,0.6-1.5,0.4c0.1,1.2,3.8-0.2,3.1-0.1c3.3-0.5,10.5-0.9,12.8-0.8
		c0.1-0.8-0.5-0.7-0.9-0.7c11.9-1.9,30.4-1,40.6-3.9c0,0.2,0,0.5,0,0.7c2.2-1.6,5.4-0.8,7.6-1c-4,1.7-12.3,1.4-17.7,2.7
		c4.6,0.6,10.8,0,14.4,0.2c-3,0.7-6.5,0.9-10.1,1.1c4.6,1.3,10.2-0.2,15.9-0.2c-1.2-0.8-3.6,0-5.2-0.2c1.3-2,3.4-1.2,4.9-1.2
		c14.2,0.2,27.9-1.7,41.6-2.5c0.9-0.1,1.8-0.6,2.7-0.8c11.4-2.1,23.8-0.4,34.9-0.9c0-0.3-0.4-0.3-0.6-0.3c2.9-0.6,7.1,0.2,9.8-1.4
		c-0.3-1.1-2.7,1.3-2.8-0.6c0.9,0.4,3.1-0.4,4.9-0.2c0-1.4-0.6-0.2-1.2-0.3c1.1-1.3,2.2-0.9,3.9-1.9c0.1-0.6-0.3-0.7-0.6-0.7
		c0.3-1,1.3,0.1,1.8-0.1c-0.8,1.2-1.6,2.3-3.6,2.2c1.4,1,2.8,2,5.3,1.6c-1.7,1.8-5.3,0.7-9.4,1.4c0.1,0.3,0.3,0.6,0.6,0.7
		c-0.1,0.8-0.8-0.4-1.2-0.3c-0.7,0.1-0.6,0.9-0.6,1.8c6.1,0.3,10.2-3.1,15.3-1.9c-0.8,0.9-1.6,0.5-3.3,0.8c0.1,0.4,0.6,0.3,0.9,0.3
		c-2.2,0.7-4.9,0.9-7.6,1c3.7,1.2,8.2,0.6,10.4-0.4c-0.1-0.4-0.6-0.3-0.9-0.3c1.2-2.1,3.3-0.4,4.6,0.5c-0.1,0.4-1.8-0.2-2.8,0.1
		c0.6,0.7,1.2,1.3,2.2,0.6c-1,1.6,3.6,2,5,1.6c0.1-1.4-0.9,0.2-1.3-1c0.1,1.3-1.2,0.2-2.7,0.4c-0.2-0.7,0.4-0.7,0.9-0.7
		c0-0.3-0.4-0.3-0.6-0.3c2.1,0,4,0.1,5.2,0.5c-0.9-0.1-0.8,0.8-0.9,1.8c2,1.8,4.6,2.8,4.8,6.9c-1.4-1.7-2.2-4.4-4.7-3.7
		c-0.2,1.4,1.1,4,2.9,4.1c0.2,0.5-1.7-0.2-0.6,0.7c0,0.7-1.2-0.2-1.5-0.3c1.1-0.6-0.2-1.4-1.3-1.4c0.5,1.1,0.8,2.4,2.2,2.4
		c-0.9,0.8,0,1.6-0.5,2.5c-1.2-0.4-1-2.4-2.2-2.7c-0.9,1.1,1.8,1.5,0.7,2.8c0.1-0.2,1.7,1.3,1.5-0.1c-0.4,1.4,0.2,3.2,2,3.8
		c0.3,1.1-0.5,3.3,0.4,2.1c0.9,0.5-0.6,2.1-1.2,1.1c0.8,1.3,1.2,3.2,2.3,4.2c-0.1,0.6-0.5,0.8-1.2,0.7c0.2,2.1,0.2,2.4,1,3.1
		c-1,0-1,1-2.1,0.8c0.6,1.3,0.9,1.4,1.9,1.7c-1.3,0.9,0.9,1.9,0.7,2.8c0.8-0.4,1.6-0.5,2.4-0.1c0.5,0.8-1.6-0.5-1.8,0.8
		c0.4,0.8,1.6,0.5,1.9,1.3c-0.4,0.6-1.6,0.3-1.5,1.5c2,2.6,1.3,7.8,4.6,8.7c0.1,0.4,0.1,1.4,0.7,2.1c-0.4-0.5-1.8-0.4-2.1,0.1
		c0.1,0.9,0.5,1.4,1.3,1.4c-0.3,1.1-1.2-0.2-1.5-0.3c-1,0.6-1,1.3-1.2,2.2c-2.3,0.1-4,0.3-4.8,2.6c0,1,0.8,1,1.6,1
		c0.4-0.1,0.3-0.7,0-0.7c0.4-0.6,2.1,1.5,1.3,2.4c1.1-0.3,1.2,0.7,2.2,0.6c0,1.7-0.7-0.7-1.8,0.1c1.8,0.6-0.2,1.1-0.9,1.8
		c0.1,0.9,1.2,1.1,0.4,2.1c0.4,0.9,1.2-0.9,1.2,0.7c-2,0.9-3.1-0.5-4.9,0.2c0.5,0.9,1,1.1-0.3,0.7c-0.1,0.2-0.5,1.6,0.4,1.8
		c-0.2,0.5-0.6,0.7-1.2,0.7c0.3,0.7,1.4,0.5,1.3,1.7c-2.6,0.6-2.6-2-5.2-1.2c-0.1-0.8,0.9-0.4,0.9-1.1c-3.6,1-5.1,4.3-9,4.9
		c0.4-1.7-3-0.3-2.4,1.5c-4.5-0.5-3.1-1-8,0.3c0.6,0.9,1.6,1.5,3.1,1.3c-0.8,2.2-3.5,1.2-5.8,1.3c1-0.8,0.2-0.8-0.9-0.7
		c0,0.3,0.4,0.3,0.6,0.3c-7.3,1.2-15.7,0-24.2,0.5c-0.1-0.6,0.3-0.6,0.3-1.1c-3.7-0.5-6,1.1-1.2,0.7c-0.1,0.6-3.3,0.7-4.6,1.2
		c1-0.6-0.1-1.1-0.7-1.7c-0.8,1.7-2.3,0.7-4.3,0.9c0.5-1.2,1.1,0,1.8-0.8c-0.6-0.8-2.4-0.1-3.1,0.1c0.1,0.4,0.6,0.3,0.9,0.3
		c0,0.8-1.3,0.2-1.8,0.4c0-0.3,0.3-0.4,0.3-0.7c-3.4,0-4.7,0.4-7.6,0.6c-0.4,0.2,0.1,0.4,0,1.1c-1.5-0.9-1.4,0.8-3.1,0.1
		c0.4-1,1-0.5,2.4-0.8c-2.2-0.4-5.3-0.9-7,0.2c0.5,0.7,2.1,0,2.8,0.6c-1.2,1.1-3.9,0.5-5.5,0.5c1.3-1.9-1.7,0.8-1.9-0.6
		c-0.7,0.2,0.4,0.5-0.3,1.1c-2.5-0.2-4,0.7-6.4,0.6c0.6-1.1,1.4-0.1,2.1-0.8c-1.6-0.9-2.5,0.9-5.2,0.5c1,0.9,2.1-0.1,2.5,1
		c-0.4,0.5-1,0.7-1.8,0.8c0.2-0.3,0.3-0.6,0.3-1.1c-9.6,0.8-13.8,1.7-23.5,2.6c0-0.3,0.4-0.3,0.6-0.4c-8.6-2.9-18.3,1.2-27.8,1
		c0.3,0.5,0.8,0.7,1.6,0.7c-1.9,1.3-3.9-0.4-5.8-0.2c1.5,1.8-1.4-1.2-0.3,1.1c-1.4,0-2.9,0.1-4.3,0.1c0.2-0.5,0.7-0.8,1.5-0.8
		c-11.5-0.4-25.4,1.4-35.2,0.5c0,0.3,0.4,0.3,0.6,0.3c-6.6,1-19.4-3.6-26.1-2.6c-0.9,0.1-1.1,1.5-1.8,1.1c0,0.4,0.1,0.6,0.3,0.7
		c-0.6,1.1-1.2-2.4-2.5-0.6c-0.4-0.7,2.2-1,3-1.5c-4.3-1.8-9.2-1.9-13.8-0.9c1.7-1.5-2.1-1-3.4-0.9c-0.4-0.6,2.7-0.3,3-1.2
		c-1.1-1.1-5.4-0.9-6.4,0.2c-0.3-0.1-0.2-0.3,0-0.4c0-0.3-0.4-0.3-0.6-0.3c-0.1-0.8,1.1-0.2,1.5-0.4c0-0.8-1.1-0.1-1.5-0.3
		c1.5-1.1-0.8-1.6-2.2-1.3c-0.3,0,3.2-1.8,1.1-2.5c0.9-0.6,1.8-1.2,2.1-2.5c-0.4-1.5-1.7-1.8-1.4-4.2c-0.7-0.5-2.5,0.7-4,0.5
		c0.3-0.6,1-0.7,1.5-1.1c-0.8-1.3-2.4-2.2-1.4-3.8c-0.1-0.4-0.6-0.2-0.6-0.7c-0.8-0.2-0.6,0.7-0.9,1.1c-0.7-1,0.7-2.6,2.4-2.2
		c-0.3-1.3-1.4-1.5-2.8-1.3c-1-0.5,1.3-0.4,1.8-0.4c-0.4-0.7-1.9-0.1-2.5-0.6c0.1-0.8,1.5-0.2,2.1-0.4c0.5-0.5,1.5-1.8-0.1-1.8
		c0-0.7,1-0.3,0.9-1.1c-1.4-0.5,0.9-1.1-1-1c0.1-0.5,0.8-0.3,1.2-0.4c0.4-2.3-1.8-1.4-2.8-2c0.2-0.8,1.7-0.2,2.4-0.4
		c1.1-0.5-0.1-1.5,0.8-2.1c-0.2-0.8-0.5,0.4-0.9-0.3c0.3-0.5,0.5-1.1,0.9-1.4c-1-1.1-4-0.7-0.3-1c-0.6-0.8-2.2-0.5-3.1-1
		c0.8-0.8,2.8,0.1,4,0.2c1.2-0.8,0.7-1.7,1.1-3.6c-0.8-0.9-2.8-0.1-3.4,0.5c0,0.6,0,1.2,0.1,1.8c-0.8-0.4-0.6-1.5-0.1-2.1
		c-0.1-0.7-1.3,0-1.6-0.7c1.6,1.3,3.8-5.2,2.2-7.5c-0.5-0.7-1.9,0.5-2.5-0.3c-0.2-0.3,2-0.7,2.4-0.4c0.1-2.2-1.5-2.3-3.1-2.4
		c0-0.8,0.7-0.8,1.5-0.8c-0.2-2-2.7-1.1-4-1.6c1.9-0.1,5.6-0.3,5.4-3c-0.6-0.2,0.3-0.6,0.3,0c1.8-0.4,1.2-2.4,2-3.2
		C80.4,290,83.3,288.4,85.3,285.8z M311.4,277.2c1.9,1.4,3,1.6,5,2.6C315.9,277.8,312.5,277.3,311.4,277.2z M243.3,274.7
		c2-0.2,3.1,0.5,4.6-0.5C246.8,273.8,243.9,274.1,243.3,274.7z M280.7,274.8c0.9,0.2,1.1-0.4,1.8-0.4c4.4-0.3,0.4-0.2-1.2-0.7
		c0.7-0.8,3.3,0.8,3.9-1.2c-3.6,0.4-5-0.2-6.7,1.6c-0.7-0.8-2.4-0.8-3.4,0.1C277.8,275.2,280.8,273.1,280.7,274.8z M234.8,275.7
		c1.6-1.1,3.7,0.6,4.3-0.9C237.7,275.2,235.2,274.3,234.8,275.7z M161.7,278.6c1.4,0.3,3.2,0.1,4.6-0.5
		C164.9,277.5,162.9,278,161.7,278.6z M170.2,278.3c1.8-0.3,2.5,0.3,3.3-0.8C172.4,277.5,170,277.9,170.2,278.3z M115.2,280.9
		c1.1,1.2,8.1-1,8.9-0.7C122.4,279.3,116,281.8,115.2,280.9z M314,281c-0.2,0.1-0.6,0-0.6,0.4c1-0.6,1.4,1.5,1.8,0.3
		c-0.4-0.2-1-2.1-1.6-1C313.9,280.7,314.1,280.7,314,281z M319.7,321c0.5,0,1,0,1.5-0.1c0.1-0.9-1.8-1.1-1.9-0.6
		C319.6,320.4,319.7,320.6,319.7,321z M320.7,322.8c0.7-0.2,1.4-0.5,1.5-1.5C321.2,321.3,320.7,321.8,320.7,322.8z M321.9,323.4
		c0,0.7-0.8,0.5-0.6,1.4c0.4,0,0.3,0.6,0.6,0.7C323.1,324.2,322,324.6,321.9,323.4z M214.1,351.2c0.8-0.6,3,0.6,3.6-0.8
		C216,349.8,215,350,214.1,351.2z M228.2,349.6c-1.5-0.5-2.6-0.1-3.4,0.1C225.9,350.3,227.4,349.9,228.2,349.6z M203.2,353
		c6.2-0.4,10.7-0.2,15.9-1.3c0.8,0,1.6-0.1,2.4-0.1c0.6,0.1,2.8-0.2,1.2-0.4c-4.2-0.5-9,1.7-11.9,0.4c0.4-0.2,1.6,0.4,1.5-0.4
		C208.4,351.8,205.6,351.7,203.2,353z M163.1,274.6c-0.6-0.7-2.5,0.8-3.4-0.2c-0.1-0.8,1.1-0.2,1.5-0.4c-0.5-1.2-2.2,0.1-3.4-0.9
		c2.1-0.7,3.9-0.5,7-1.3c0,1.3-2.3,0.3-2.7,1.2C163.3,274.1,164.3,273.7,163.1,274.6z M214.5,274.3c-0.5,1.8-4.4,0-5.5,1.2
		C208.8,273.5,212.9,275.3,214.5,274.3z M137,275.2c3.8-0.6,13.6-1.6,20.1-2.5c-0.5,1.2-2.8,0.7-3.9,1.2c1.1,1.4,3.1-0.5,4.6,0.5
		c-10.4,1.4-19.6,2.6-29.7,1.7c-3.8,1.4-11.7,0.4-18.4,0.6c-0.5-0.9,3.4,0.1,4-0.8c-3.6-0.6-6.6,0.9-10.4,0.7
		c0.2,1.4,2.2,0.7,3.1,1.3c-3.4,1.4-7.4-1.2-10.4-0.3c10.3-3.2,27.5-2,41.9-2.9C137.9,275.2,137.4,275.1,137,275.2z M146.2,274.9
		c1.4,0.7,3.8-0.1,5.2-0.5C149.9,274,147.3,273.8,146.2,274.9z"/>
	<path class="st0" d="M159.9,354.3c-4.5,0.2,0.3-0.6,2.5-0.2C161.6,354.2,160.9,354.3,159.9,354.3z M97.3,356.7
		c-0.3-0.9-2-0.2-3-0.3C95.2,357.7,96,356.3,97.3,356.7z M101.9,356.2c-0.3-0.3-2.2-0.9-2.1-0.1
		C100.2,356.4,101.2,356.2,101.9,356.2z M77.2,357.3c0.6-1.1-1.4,0-1.8-0.6C74.5,357.6,77.1,356.7,77.2,357.3z M186.3,350.1
		c0.4,0.5,1.7,0,2.5,0.1C188.4,349.7,187,350.2,186.3,350.1z M60.3,355.6C59.2,354.7,57.2,356.1,60.3,355.6L60.3,355.6z M57.2,350.9
		c-1.8-1.2-4.6,0.5-7.3,0.2C51,351.6,55,350.9,57.2,350.9z M57.4,350.4c1.9,0.5,4.2-0.2,5.7-0.4C61.9,349.5,58.9,350.4,57.4,350.4z
		 M48.6,345c0.4,0.5,1.7,0,2.5,0.1C50.7,344.6,49.4,345.1,48.6,345z M55.4,342c0.5,0.4,2.1-0.5,2.3,0.1
		C58.4,341.3,55.7,341.8,55.4,342z M58.1,341.6c2.3,0.6,6.5-0.7,9.6-0.8c0.6-0.2,1.3,1.2,1.4,0.1C66.6,339.9,60.9,341.4,58.1,341.6z
		 M204.3,324.9c-0.1-0.3-1.6,0-0.5-0.4c-0.4-1-0.6,0.4-1.4,0.3C202.7,325.3,203.9,325.3,204.3,324.9z M204.1,324.2
		c0.9,0,0.4-1.6-0.5-1.1c0.1,0.2,0.5,0.1,0.5,0.4C203.8,323.9,204,323.9,204.1,324.2z M206.6,321.8c-0.3-0.3-0.3-0.5,0.2-0.7
		c-0.8-0.4-1.7-0.2-2.5-0.1C205.1,321.5,205.6,321.9,206.6,321.8z M49.1,331.1c-0.4-0.4,0-0.8,0.7-0.7c-2.1-0.1-4.1,0.7-5.9,0.4
		C44.8,332.1,47.8,330.8,49.1,331.1z M45.9,330.1c-0.1-0.2-0.3-0.4,0-0.5c-0.4-0.3-2.7-0.4-2.7,0.4C43.9,329.7,45,330,45.9,330.1z
		 M53,323.2c0.4,0.4,2.2,0.1,2.3-0.6C54.6,322.8,53.6,322.9,53,323.2z M67.1,317.9c-0.6-0.7-1.1,0-2.1-0.3
		C64.9,318.5,66.4,317.8,67.1,317.9z M60.4,315.6c-0.2-0.8-1.1,0.1-2.1-0.1C58.9,315.8,59.8,315.9,60.4,315.6z M158.8,306.3
		c-1.5-1-9.3-0.4-11,0.5C152,307.1,155.5,306.2,158.8,306.3z M162.5,305.2c-0.9-0.3-1.6,0.7-2.1,0.1
		C159.5,305.9,162.8,306,162.5,305.2z M173,305c3-0.5,6.7-0.5,9.8-0.9c0-0.5-0.8-0.1-1.1-0.2c1.8-0.9,5.1-0.4,7.5-1.2
		c-5.5-0.2-10.9,1.5-16.2,1.3C173,304.3,173,304.6,173,305z M183.3,349.8c5.3-0.6,9.6-1.4,15.5-1.2c-0.4-0.7-1.8-0.3-2.8-0.3
		c1.5-1.8,6.5-0.3,7.7-2.3c0.8,0.1,1-0.5,1.8-0.3c-0.3-0.5-1.1-0.3-1.4-0.8c0.2-1.9,3.2-1.1,4.1-2.3c-0.7-0.1-2.4,0.8-3.6,0.9
		c-1.6-2.2,2.1-6.3-0.4-8.3c0.7-1-0.5-1.3,0.2-2.8c-0.1-0.6,1.3,0.1,0.9-0.7c-0.6,0.1-0.4-0.3,0-0.2c-0.2-0.8-0.4-0.1-1.1-0.2
		c-0.4-0.4,0.3-1.5-0.7-1.6c0-0.5,1-0.1,1.1-0.5c-0.2-0.5-0.3-1.1-0.9-1.1c0.5-0.3,0.1-0.5,0.4-0.7c-1.1-0.8-1.6-2.2-2.6-3.5
		c0.2-0.5,1.3-0.2,1.8-0.3c-0.2-0.3-1.7-0.3-0.2-0.4c0-0.6-0.8-0.4-1.4-0.4c0.6-0.7,0.3-0.9,1.3-1.2c0-0.6-0.4-0.7-0.5-1.1
		c1.9-1.2,0.4-2.3,1-4.2c0.6,1,2.6,1.1,3.9,0.7c-0.1-0.5-1,0-1.2-0.4c2.5-0.6-1.7-0.9-3-0.7c0.6-0.4,0.1-0.6,0.4-1.4
		c-0.3,0-0.6,0-0.9,0.1c-0.2-1.2,1.6-0.6,1.3-1.9c-0.5-0.1-0.4,0.4-0.4,0.7c-0.8,0.1-1.7,0.1-2.5,0.2c-0.4-0.8-0.3-1-0.7-1.6
		c0.1-0.5,1.1-0.2,1.6-0.3c0.6-0.4-1.1-0.1-1.4-0.4c1-0.1,0.7-1.5,1.6-1.7c0-0.5-0.6-0.5-1.2-0.4c0.4-0.3,0.9-0.5,1.1-1
		c0.2,0.2,0.6,0.1,0.7,0.4c0.6-0.5-1.2-0.4-0.7-1.6c-0.7,0.2-2.8,1-2.7,1.3c-4.3-0.4-7.1-1.7-11.9-2c-4.2-0.2-10.1,0.3-14.8,0.3
		c-11.3-0.2-23.4,2.3-35.1,2c0.1-0.3,0.6-0.2,0.9-0.3c-0.5-0.9-1.8-0.9-3.2-0.7c0,0.2,0.3,0.2,0.5,0.2c-10.2,2.2-21.1,3.2-33.5,3.8
		c-0.4,0-0.2-0.8-0.5-0.9c-2.2,0.9-10.5,2.3-14.4,1.4c0.1,0.2,0.2,0.4,0.5,0.4c-8.6,0.9-17.7,1.8-27.1,3.1c0,0.6,0.8,0.4,1.4,0.4
		c-0.6,0.4-1.5,0.6-2.5,0.6c2.1,0.8,5.9-1.5,8.2-0.3c-0.7,0.8-1.6,0.1-2.7,0.6c0.8,0.4,2.3,0,3.2,0.3c0,0.3-0.4,0.2-0.7,0.3
		c1,0.5,4.1,0.4,5.7,0.3c-2.5,0.5-3.6,0.9-6.4,1.1c0,1,0.7-0.1,1.4,0.1c-0.9,0.7-2.3,0.9-3.6,1.2c0.4-0.8,1.2-0.2,2-0.8
		c-0.6-0.5-2,0-3,0c0.8,0.3,0.4,0.4,0.7,1.1c-0.8,0.2-3.3,0.9-4.3,0.7c0.1,1-2.2,1.1-3.9,1.2c1,0.3,0.4,0.7-0.7,0.7
		c-0.1,0.4,0.2,0.4,0.2,0.7c-1.3,0.4-2.4,0.8-3.2,1.1c3,0.2,6.6-1,11.6-1.4c0,0.2-0.3,0.2-0.5,0.3c1.3,0.2,3.8-0.7,5.5-0.6
		c-2.1,1.5-6.1,0.7-7.5,1.4c0.2,0.5,1.1,0.1,1.2,0.6c-0.4,0.4-1.4,0.3-2,0.6c2.3,0.4,6-0.8,8.2-0.3c-0.1,0.5-1.4,0.1-0.7,0.7
		c-0.9-0.2-2.5-0.4-2.7,0.2c-0.5,1,1.6,0.1,2.3,0.1c-2,1.3-5.8,1.4-9.8,1.8c1.4,0.9,3-0.3,5.3-0.1c-0.1,0.8-1.7,0.4-2.5,0.6
		c0.1,0.3,1,0.4,0,0.5c0.3,0.5,1.2-0.1,2.1,0.3c-0.7,0.6-1.9,0.6-2.7,1.1c0.9-0.9-0.2,0-0.5-0.4c-0.3,0.2,0.3,1-0.9,0.7
		c0,0.5,1,0,1.4,0.1c0,0.7-1.5,0.1-1.3,1c0.4,0,0.6-0.4,0.7,0c-0.6,0.6-2.2,0.2-3.2,0.4c0.4,0.3,1,0.3,1.6,0.4
		c-0.3,0.4-1.2,0.3-1.6,0.6c1.4,0.2,4-0.9,5.2-0.3c-0.8,0.4-1.6,0.2-3,0.4c1,0,0,1.6-0.4,1.2c-0.6,0.3,0.6,0.6,1.2,0.4
		c-0.2,0.4-0.7,0.6-1.4,0.5c-0.6,0.4,1.3,0.1,1.8,0.1c-0.4,0.5-1.8,0.2-2.3,0.6c-0.2,0.7,0.5,0.4,0.9,0.4c0,0.5-1,0.2-1.4,0.3
		c-0.8,0.3,2,0.5,1.6-0.3c0.6,0.4-0.5,1-0.9,1.2c1.4,0,4-0.4,5-0.1c-1.6,1-5.8-0.2-6.4,1.1c0.3,0.5,1.6,0,2.3,0.1
		c0.1,0.5-0.8,0.2-1.1,0.3c-0.5,0.7,2.1-0.3,2.1,0.1c0.6-0.1-0.2-0.6-0.7-0.4c2.1-0.8,3-0.4,5-0.8c-0.1-0.5-1.2,0.1-1.2-0.6
		c1.2,0.1,2,1,3.2,0.5c-1.3,0.8-2.2,0.6-3.9,0.9c0.8,0.7,2,0.5,3.2,0.3c-0.7,0.7-2.3,0.6-3.6,0.7c2.5,1.2,6.6,0,9.2,1.5
		c-1,0.3-1.2,0.5-2.7,0.6c0.6,0.5,2.2,0.8,2.8,0.5c-3.3,1.5-8,1.7-12.5,2c1.5,0.5,0.7-0.1,0,0.9c1.1-0.1,2.1-0.1,3.2-0.2
		c-1.8,1-2.6,0.3-4.3,0.5c0,0,0.3,0.2,0.5,0.2c-1,0.1-2.3,0.2-3.9,0.7c2.7,0.4,6.7-1.1,10.5-1.1c-0.4,0.9-2.4,0.4-3.2,0.9
		c-0.4,0.5,3.7,0.2,5,0.1c-0.9,1-2.2,1.5-5.2,1.5c-0.5-0.1,0.3-0.4-0.2-0.7c-1.1,0.1-2.1,0.1-3.2,0.2c0,0.3,0.4,0.2,0.7,0.2
		c0,0.5-1,0.2-1.4,0.3c-0.5-0.1,0.3-0.4-0.2-0.7c-1.3-0.3-1.6,1-2.5,0.4c1.1,0.4,4.7,0.7,6.9,0.7c-1.4,0.6,1.3,0.7,0.5,0
		c1.6,0.5,2.6,0.1,5,0.1c-0.6,1,2-0.2,3.2,0.3c0,0.2-0.3,0.2-0.5,0.3c1.3,0.1,3.4,0.4,5.5,0.3c-2.3,0.6-4.6,0.1-7.1,0.5
		c1.5,0.5,4.5,0.7,6,0.5c-0.1,1-1.2,0.2-1.1,1c1.3,0.1,1.9-0.1,3.2,0.3c-2.4,1.2-6.6,0.6-9.8,1.1c0.4,0.8,1.2,0.1,0.5,1.1
		c1.7-1.1,3.3-0.2,5.9-0.4c-2.6,0.8-5.1,0.2-7.1,0.7c1.9,0.5,4.7,0.1,6.6,0.5c0.3,0.1-0.1,0.3,0,0.7c13.9,1,24.4-0.2,39.3-0.7
		c0.1,0.4-0.2,0.4-0.4,0.5c0.4,0.4,2.2,0.1,2.3-0.6c1.7-0.3,5.8,0.1,5,0.1c19.1-0.1,44.3-0.2,64.8-3.9
		C184,350.5,183.2,350.3,183.3,349.8z M202.6,328c0.9-0.2,0.8,0.9,0.3,1.1C202.3,328.7,203,328.4,202.6,328z M62.4,322.9
		c-1.8,0.3-3.5,0.5-5.2,0.8C58.5,322.5,60.5,322.9,62.4,322.9z M65,354.1c0-0.2,0-0.3,0-0.5c-0.2,0.1-0.2-0.1-0.2-0.2
		c-0.4,0.6-0.3,0.3-1.1,0.3C63.2,354,64.6,354.1,65,354.1z M51.7,342.7c0.7-0.1,2.4,0.2,3.2-0.4C54.2,341.9,52.6,342.5,51.7,342.7z
		 M55.1,339c0.2,0.5,1.3,0,1.8,0.1c1-0.4-1.7,0-0.7-0.4C56.2,338.3,55.3,339,55.1,339z M44.8,339c1.4,0.6,3-0.5,4.8-0.3
		C48.5,337.6,46.6,339.3,44.8,339z M49.8,338.2c1.3,0.6,3.4-0.2,5.2-0.3C54.2,337.3,51.8,338.5,49.8,338.2z M51.9,333.7
		c0.8,0.6,2.1-0.3,3-0.4C54.1,333,52.8,333.8,51.9,333.7z M62.3,326.8c0.6,0.6,2-0.1,2-0.8C63.8,326.4,63.1,326.7,62.3,326.8z
		 M145.8,307.1c-0.4-1.6-3,0.2-3.7-0.2C143,307.5,144.7,306.7,145.8,307.1z M162.7,304.9c0.5,0.8,3.8,0.2,3.4-0.5
		c0.7,0,1,0.5,1.8,0.3C166.5,303.5,164.9,305.1,162.7,304.9z"/>
	<path class="st0" d="M155.4,335.7c-4.5-0.4,0.4-0.5,2.5,0.2C157.1,335.8,156.4,335.8,155.4,335.7z M93.1,329.6
		c-0.2-0.9-2-0.4-2.9-0.7C90.8,330.3,91.9,329.1,93.1,329.6z M97.7,329.7c-0.3-0.3-2.1-1.2-2-0.4C96,329.7,97,329.6,97.7,329.7z
		 M73.1,327.5c0.7-1-1.3-0.2-1.7-0.8C70.3,327.5,73.1,326.8,73.1,327.5z M182.1,335.1c0.3,0.6,1.7,0.2,2.5,0.4
		C184.3,335,182.9,335.3,182.1,335.1z M56.5,323.5C55.6,322.5,53.4,323.6,56.5,323.5L56.5,323.5z M54.1,318.4
		c-1.7-1.5-4.6-0.2-7.3-0.8C47.9,318.3,51.9,318.1,54.1,318.4z M54.4,318c1.8,0.7,4.2,0.3,5.7,0.4C58.9,317.6,55.9,318.1,54.4,318z
		 M46.4,311.4c0.3,0.6,1.7,0.2,2.5,0.4C48.5,311.3,47.1,311.6,46.4,311.4z M53.5,309.4c0.4,0.5,2.2-0.2,2.3,0.4
		C56.6,309,53.9,309.2,53.5,309.4z M56.3,309.4c2.2,0.9,6.5,0.2,9.6,0.5c0.6-0.1,1.2,1.4,1.3,0.3C65,308.8,59,309.5,56.3,309.4z
		 M203.4,312.6c-0.1-0.3-1.5-0.2-0.4-0.5c-0.3-1.1-0.6,0.3-1.4,0.1C201.8,312.8,203,313,203.4,312.6z M203.3,311.9
		c0.9,0.1,0.6-1.6-0.3-1.2c0,0.3,0.4,0.2,0.4,0.5C203,311.5,203.2,311.6,203.3,311.9z M206,309.8c-0.2-0.3-0.2-0.6,0.3-0.7
		c-0.7-0.5-1.7-0.5-2.5-0.4C204.7,309.3,205.1,309.7,206,309.8z M48.8,297.7c-0.4-0.4,0.1-0.8,0.8-0.6c-2.1-0.3-4.1,0.1-5.9-0.4
		C44.3,298.1,47.6,297.2,48.8,297.7z M45.7,296.3c-0.1-0.2-0.2-0.4,0.1-0.5c-0.3-0.3-2.7-0.8-2.8,0
		C43.8,295.6,44.8,296.1,45.7,296.3z M53.7,290.4c0.4,0.5,2.1,0.4,2.3-0.3C55.3,290.3,54.4,290.2,53.7,290.4z M68.4,287.1
		c-0.5-0.8-1.1-0.2-2-0.6C66.2,287.4,67.7,286.9,68.4,287.1z M62,283.9c-0.1-0.8-1.1,0-2-0.4C60.6,283.9,61.4,284.1,62,283.9z
		 M160.9,288c-1.4-1.2-9.2-1.7-10.9-1C154,287.8,157.6,287.4,160.9,288z M164.6,287.4c-0.8-0.4-1.7,0.5-2.1-0.1
		C161.5,287.7,164.8,288.3,164.6,287.4z M175.1,288.6c3-0.1,6.8,0.4,9.8,0.5c0.1-0.5-0.8-0.2-1.1-0.3c1.9-0.6,5.1,0.3,7.6-0.1
		c-5.4-0.9-11,0-16.2-0.9C175.1,288,175.1,288.3,175.1,288.6z M179.2,334.4c5.4,0.1,9.7,0,15.5,0.9c-0.3-0.7-1.7-0.5-2.7-0.7
		c1.7-1.6,6.5,0.6,8-1.3c0.8,0.2,1-0.3,1.8-0.1c-0.2-0.5-1.1-0.5-1.3-1c0.4-1.8,3.3-0.7,4.3-1.8c-0.7-0.2-2.5,0.5-3.7,0.4
		c-1.3-2.4,2.9-6,0.7-8.3c0.9-0.9-0.3-1.3,0.5-2.7c0-0.6,1.3,0.3,1-0.6c-0.6,0-0.4-0.3,0-0.2c-0.1-0.8-0.4-0.1-1.1-0.3
		c-0.3-0.4,0.5-1.4-0.5-1.7c0.1-0.5,1,0,1.2-0.4c-0.2-0.5-0.2-1.1-0.8-1.2c0.6-0.3,0.2-0.4,0.5-0.7c-1-0.9-1.3-2.4-2.1-3.9
		c0.2-0.5,1.3,0,1.8-0.1c-0.2-0.4-1.6-0.5-0.2-0.5c0-0.6-0.7-0.5-1.3-0.6c0.7-0.6,0.4-0.9,1.5-1c0.1-0.6-0.3-0.7-0.3-1.2
		c2-0.9,0.7-2.2,1.6-4c0.5,1.1,2.4,1.4,3.8,1.2c0-0.5-1-0.1-1.1-0.5c2.5-0.3-1.5-1.2-2.9-1.1c0.7-0.3,0.2-0.6,0.6-1.3
		c-0.3,0-0.6,0-0.9-0.1c0-1.2,1.7-0.4,1.6-1.7c-0.5-0.1-0.5,0.3-0.5,0.7c-0.8-0.1-1.7-0.1-2.5-0.2c-0.3-0.9-0.2-1-0.5-1.7
		c0.2-0.5,1.1,0,1.6-0.1c0.6-0.3-1.1-0.3-1.3-0.6c1,0,0.9-1.4,1.8-1.5c0-0.5-0.5-0.5-1.1-0.5c0.4-0.3,1-0.4,1.2-0.8
		c0.2,0.2,0.6,0.2,0.6,0.5c0.6-0.4-1.2-0.5-0.5-1.7c-0.8,0.1-3,0.6-2.9,0.9c-4.2-1-6.8-2.7-11.6-3.6c-4.1-0.8-10-1-14.7-1.8
		c-11.2-1.7-23.5-0.9-35.1-2.8c0.1-0.3,0.6-0.2,0.9-0.2c-0.4-0.9-1.6-1.1-3.1-1.1c0,0.2,0.3,0.2,0.4,0.3
		c-10.4,0.8-21.3,0.3-33.7-0.8c-0.4-0.1-0.1-0.8-0.4-1c-2.3,0.5-10.7,0.9-14.4-0.6c0.1,0.2,0.2,0.4,0.4,0.5
		c-8.6-0.3-17.8-0.7-27.3-0.6c0,0.6,0.7,0.5,1.3,0.6c-0.7,0.3-1.6,0.4-2.6,0.3c2,1.1,6-0.7,8.2,0.8c-0.8,0.7-1.6-0.1-2.8,0.3
		c0.7,0.5,2.2,0.3,3.1,0.7c-0.1,0.3-0.4,0.2-0.7,0.2c0.9,0.7,4.1,0.9,5.6,1.1c-2.5,0.1-3.6,0.4-6.5,0.2c-0.1,1,0.7-0.1,1.3,0.3
		c-1,0.5-2.4,0.6-3.7,0.7c0.5-0.7,1.2-0.1,2.1-0.5c-0.5-0.6-2-0.2-2.9-0.4c0.8,0.4,0.3,0.5,0.6,1.2c-0.9,0.1-3.4,0.4-4.4,0.1
		c0,1-2.4,0.8-4,0.6c1,0.4,0.3,0.8-0.8,0.6c-0.1,0.4,0.2,0.4,0.2,0.7c-1.3,0.2-2.5,0.5-3.3,0.7c3,0.6,6.7-0.1,11.7,0.2
		c0,0.2-0.3,0.2-0.5,0.2c1.3,0.4,3.9-0.2,5.5,0.2c-2.3,1.2-6.1-0.1-7.6,0.4c0.1,0.5,1,0.2,1.1,0.8c-0.5,0.4-1.5,0.1-2.1,0.3
		c2.2,0.7,6,0,8.2,0.8c-0.1,0.5-1.4-0.1-0.8,0.6c-0.9-0.3-2.4-0.7-2.7-0.2c-0.6,1,1.6,0.3,2.3,0.4c-2.2,1-5.9,0.6-9.9,0.4
		c1.2,1.1,3,0.1,5.2,0.6c-0.3,0.8-1.7,0.2-2.6,0.3c0,0.3,0.9,0.5-0.1,0.5c0.3,0.5,1.2,0.1,2,0.6c-0.8,0.5-2,0.3-2.8,0.7
		c1-0.8-0.2,0-0.4-0.5c-0.3,0.1,0.2,1-1,0.6c0,0.5,1,0.2,1.3,0.3c-0.1,0.7-1.5-0.1-1.5,0.8c0.4,0.1,0.6-0.3,0.7,0
		c-0.7,0.5-2.2-0.1-3.2,0c0.3,0.4,1,0.4,1.5,0.6c-0.3,0.4-1.2,0.1-1.6,0.3c1.4,0.4,4.1-0.4,5.2,0.4c-0.9,0.3-1.6-0.1-3,0
		c1,0.1-0.2,1.5-0.6,1.1c-0.7,0.3,0.5,0.7,1.1,0.5c-0.3,0.4-0.8,0.5-1.4,0.4c-0.7,0.4,1.3,0.3,1.8,0.4c-0.5,0.5-1.8-0.1-2.3,0.3
		c-0.3,0.7,0.5,0.4,0.9,0.5c-0.1,0.5-1,0-1.4,0.1c-0.8,0.2,1.9,0.8,1.6-0.1c0.5,0.4-0.6,1-1,1.1c1.4,0.2,4,0.2,5,0.6
		c-1.7,0.7-5.8-1-6.5,0.2c0.3,0.5,1.6,0.2,2.3,0.4c0,0.5-0.8,0-1.2,0.1c-0.6,0.6,2.1,0,2,0.4c0.6-0.1-0.1-0.7-0.6-0.5
		c2.2-0.5,3,0.1,5.1-0.1c0-0.5-1.3-0.1-1.1-0.8c1.2,0.3,1.8,1.3,3.1,0.9c-1.4,0.6-2.2,0.3-4,0.4c0.7,0.8,1.9,0.8,3.1,0.7
		c-0.8,0.6-2.4,0.3-3.7,0.2c2.3,1.5,6.6,0.9,8.9,2.7c-1,0.1-1.3,0.4-2.8,0.3c0.5,0.5,2,1.1,2.7,0.9c-3.5,1-8.1,0.6-12.7,0.2
		c1.4,0.7,0.7,0-0.1,0.9c1.1,0.1,2.1,0.2,3.2,0.2c-1.9,0.8-2.6,0-4.4-0.1c0,0,0.3,0.3,0.4,0.3c-1,0-2.3-0.2-3.9,0.2
		c2.6,0.7,6.8-0.1,10.5,0.3c-0.5,0.9-2.4,0-3.3,0.5c-0.5,0.5,3.7,0.7,5,0.8c-1,0.9-2.4,1.2-5.4,0.8c-0.5-0.2,0.3-0.3-0.2-0.7
		c-1.1-0.1-2.1-0.2-3.2-0.2c0,0.3,0.4,0.2,0.7,0.3c-0.1,0.5-1,0-1.4,0.1c-0.5-0.2,0.3-0.3-0.2-0.7c-1.2-0.5-1.8,0.8-2.5,0
		c1,0.6,4.5,1.3,6.7,1.6c-1.4,0.4,1.2,0.9,0.5,0c1.5,0.7,2.5,0.5,5,0.8c-0.7,0.9,2,0.1,3.1,0.7c0,0.2-0.3,0.2-0.5,0.2
		c1.3,0.3,3.4,0.9,5.4,1.1c-2.4,0.3-4.6-0.5-7.1-0.5c1.5,0.7,4.4,1.3,5.8,1.3c-0.2,1-1.2,0-1.2,0.8c1.3,0.3,1.9,0.1,3.1,0.7
		c-2.5,0.8-6.7-0.3-9.9-0.3c0.3,0.8,1.1,0.3,0.3,1.2c1.8-0.8,3.3,0.2,5.9,0.4c-2.7,0.4-5.1-0.5-7.1-0.3c1.8,0.8,4.6,0.7,6.5,1.4
		c0.3,0.1-0.1,0.3-0.1,0.7c13.6,2.9,24.2,3.1,39,4.7c0,0.4-0.2,0.4-0.5,0.4c0.4,0.5,2.1,0.4,2.3-0.3c1.7-0.1,5.8,0.9,5,0.8
		c19,2.5,44,5.8,64.7,4.9C179.8,335.2,179,334.9,179.2,334.4z M201.3,315.4c0.9-0.1,0.6,1,0.1,1.2
		C200.9,316.1,201.7,315.9,201.3,315.4z M63.1,291.4c-1.8,0-3.5,0-5.3,0.1C59.3,290.4,61.2,291.1,63.1,291.4z M61.5,322.7
		c0-0.2,0-0.3,0.1-0.5c-0.2,0-0.2-0.1-0.2-0.2c-0.5,0.5-0.3,0.2-1.2,0.1C59.6,322.3,61,322.6,61.5,322.7z M49.8,309.6
		c0.7,0,2.3,0.5,3.2,0C52.4,309.1,50.7,309.5,49.8,309.6z M53.6,306.4c0.1,0.5,1.3,0.2,1.8,0.4c1-0.3-1.7-0.2-0.6-0.5
		C54.8,305.8,53.9,306.4,53.6,306.4z M43.4,305c1.3,0.8,3.1-0.1,4.8,0.3C47.3,304.1,45.2,305.5,43.4,305z M48.5,304.9
		c1.2,0.8,3.4,0.3,5.2,0.4C53,304.5,50.5,305.4,48.5,304.9z M51.2,300.7c0.8,0.7,2.1,0,3,0C53.5,300.2,52.1,300.9,51.2,300.7z
		 M62.4,295.2c0.5,0.6,2,0.2,2.1-0.5C64,295.1,63.3,295.2,62.4,295.2z M147.9,287.1c-0.2-1.7-3-0.2-3.6-0.7
		C145,287.1,146.8,286.5,147.9,287.1z M164.9,287.2c0.4,0.9,3.7,0.7,3.4,0c0.7,0.1,0.9,0.6,1.8,0.6
		C168.8,286.3,167.1,287.7,164.9,287.2z"/>
</g>
<g>
	<path class="st1" d="M156.7,194.7c-5,0.3,0.4,1,2.8-0.1C158.6,194.6,157.8,194.6,156.7,194.7z M88.1,200c-0.2,1.6-2.2,0.6-3.2,1
		C85.7,198.5,86.8,200.9,88.1,200z M93.2,200.3c-0.3,0.5-2.3,1.9-2.2,0.5C91.3,200.1,92.4,200.4,93.2,200.3z M66.1,202.1
		c0.7,1.9-1.5,0.3-2,1.3C63,201.8,66,203.2,66.1,202.1z M186,198.3c0.4-1,1.9-0.2,2.7-0.5C188.3,198.8,186.8,198,186,198.3z
		 M47.7,207.8C46.7,209.5,44.3,207.3,47.7,207.8L47.7,207.8z M44.8,216.8c-1.9,2.5-5.1-0.1-8,0.7C37.9,216.5,42.3,217.1,44.8,216.8z
		 M45.1,217.6c2-1.1,4.6-0.2,6.3-0.2C50,218.7,46.7,217.6,45.1,217.6z M35.9,229c0.4-1,1.9-0.2,2.7-0.5
		C38.3,229.4,36.7,228.7,35.9,229z M43.6,233.4c0.5-0.8,2.4,0.5,2.5-0.5C47,234.3,44,233.8,43.6,233.4z M46.6,233.7
		c2.5-1.5,7.2,0.3,10.5,0.1c0.7,0.3,1.3-2.5,1.5-0.5C56.1,235.5,49.7,233.6,46.6,233.7z M208.1,241.6c-0.1,0.5-1.7,0.2-0.5,0.9
		c-0.3,2-0.7-0.6-1.5-0.4C206.2,241.1,207.6,240.9,208.1,241.6z M207.8,242.9c1-0.2,0.6,2.9-0.4,2.1c0-0.5,0.5-0.3,0.5-0.9
		C207.6,243.6,207.8,243.5,207.8,242.9z M210.8,247c-0.3,0.6-0.2,1,0.3,1.3c-0.8,0.8-1.9,0.7-2.7,0.5
		C209.2,247.7,209.7,247,210.8,247z M37.8,254.3c-0.4,0.8,0,1.5,0.8,1.2c-2.3,0.4-4.5-0.6-6.5,0.2C32.9,253.2,36.4,255.1,37.8,254.3
		z M34.4,256.5c-0.1,0.4-0.3,0.8,0,0.8c-0.4,0.5-3,1.2-3-0.3C32.3,257.7,33.4,256.9,34.4,256.5z M42.8,268.1
		c0.4-0.8,2.4-0.4,2.5,0.8C44.5,268.5,43.5,268.7,42.8,268.1z M58.6,275.6c-0.6,1.4-1.2,0.2-2.2,0.9C56.2,274.8,57.9,276,58.6,275.6
		z M51.5,280.9c-0.1,1.5-1.2-0.1-2.2,0.5C49.9,280.7,50.8,280.5,51.5,280.9z M160,282.6c-1.6,2-10.2,2.2-12,0.8
		C152.5,282.3,156.4,283.4,160,282.6z M164.1,284.2c-0.9,0.6-1.9-1-2.3,0.1C160.8,283.3,164.3,282.6,164.1,284.2z M175.6,282.9
		c3.3,0.5,7.4,0,10.8,0c0.1,0.9-0.9,0.2-1.2,0.5c2.1,1.3,5.6-0.1,8.3,1c-5.9,1.1-12.1-1-17.8,0.2
		C175.7,284.1,175.6,283.5,175.6,282.9z M182.7,199.3c5.9,0.3,10.7,1,17.1-0.2c-0.3,1.3-1.9,0.8-3,1c1.8,3,7.2-0.5,8.6,3.1
		c0.9-0.3,1.1,0.7,2,0.4c-0.2,1-1.2,0.8-1.4,1.7c0.4,3.4,3.6,1.5,4.6,3.6c-0.8,0.3-2.7-1.1-4.1-1.1c-1.6,4.3,2.8,11.3,0.3,15.2
		c0.9,1.7-0.4,2.4,0.4,5.1c0,1.1,1.4-0.4,1,1.2c-0.6,0-0.4,0.5,0,0.4c-0.2,1.4-0.5,0.2-1.2,0.5c-0.4,0.8,0.4,2.6-0.6,3
		c0.1,0.9,1.1,0.1,1.3,0.8c-0.2,0.9-0.2,2-0.9,2.2c0.6,0.5,0.2,0.8,0.5,1.2c-1.1,1.5-1.5,4.3-2.5,6.9c0.2,0.9,1.4,0.1,2,0.4
		c-0.2,0.6-1.8,0.7-0.2,0.9c0,1.1-0.8,0.9-1.5,0.9c0.7,1.2,0.4,1.6,1.6,2.1c0.1,1-0.3,1.3-0.4,2.1c2.2,1.8,0.6,4.1,1.5,7.6
		c0.6-2,2.8-2.4,4.2-1.8c0,0.9-1.1,0.2-1.2,0.9c2.8,0.7-1.7,2-3.2,1.8c0.7,0.7,0.2,1.1,0.6,2.5c-0.3,0-0.7,0-1,0
		c-0.1,2.3,1.9,0.8,1.6,3.3c-0.5,0.2-0.5-0.6-0.5-1.2c-0.9,0-1.8,0.1-2.8,0.1c-0.4,1.6-0.2,1.9-0.6,3c0.1,0.9,1.2,0.1,1.8,0.4
		c0.7,0.6-1.2,0.4-1.5,0.9c1.1,0,0.9,2.6,1.9,2.9c0,0.9-0.6,0.9-1.2,0.9c0.5,0.5,1,0.8,1.3,1.6c0.2-0.4,0.7-0.3,0.7-0.9
		c0.7,0.8-1.3,0.8-0.7,3c-0.8-0.3-3.2-1.5-3.1-2c-4.7,1.4-7.6,4.3-12.9,5.5c-4.6,1.1-11,0.9-16.3,1.8c-12.4,2.1-25.8-0.5-38.6,1.8
		c0.1,0.6,0.6,0.3,1,0.4c-0.5,1.6-1.8,1.9-3.5,1.8c0-0.4,0.3-0.3,0.5-0.4c-11.3-2.5-23.3-2.5-37-1.7c-0.5,0.1-0.1,1.4-0.4,1.7
		c-2.5-1.2-11.7-2.6-15.8-0.3c0.1-0.4,0.2-0.8,0.5-0.9c-9.5-0.3-19.6-0.5-29.9-1.5c0-1.1,0.8-0.9,1.5-0.9c-0.7-0.7-1.7-0.8-2.8-0.7
		c2.3-1.8,6.6,1.8,9-0.7c-0.9-1.4-1.8,0.1-3-0.7c0.8-0.8,2.5-0.4,3.5-1c-0.1-0.5-0.5-0.3-0.8-0.4c1.1-1.2,4.5-1.3,6.2-1.5
		c-2.7-0.5-4-1.1-7.1-1c-0.1-1.9,0.8,0.2,1.5-0.5c-1.1-1-2.6-1.3-4.1-1.6c0.5,1.4,1.3,0.2,2.3,1.2c-0.6,1-2.2,0.2-3.2,0.5
		c0.9-0.6,0.4-0.9,0.7-2.1c-0.9-0.2-3.7-1.1-4.8-0.7c0.1-1.8-2.5-1.7-4.3-1.5c1.1-0.6,0.4-1.4-0.8-1.2c-0.1-0.7,0.2-0.7,0.2-1.3
		c-1.5-0.5-2.7-1.1-3.6-1.6c3.3-0.9,7.4,0.9,12.8,0.8c0-0.4-0.3-0.3-0.5-0.4c1.4-0.6,4.2,0.8,6,0.2c-2.4-2.4-6.7-0.4-8.3-1.4
		c0.1-0.9,1.2-0.3,1.2-1.3c-0.5-0.7-1.6-0.4-2.3-0.8c2.4-1.1,6.6,0.6,9-0.7c-0.1-1-1.6,0.1-0.8-1.2c-1,0.4-2.7,1.1-3,0.1
		c-0.7-1.8,1.8-0.3,2.5-0.5c-2.3-2-6.5-1.7-10.9-1.7c1.4-1.9,3.3,0.1,5.8-0.6c-0.2-1.5-1.8-0.5-2.8-0.7c0-0.6,1-0.8,0-0.8
		c0.3-0.9,1.3-0.1,2.2-0.9c-0.8-0.9-2.2-0.8-3.1-1.6c1,1.5-0.2-0.1-0.5,0.9c-0.3-0.2,0.2-1.9-1-1.2c0-0.9,1.1-0.2,1.5-0.5
		c-0.1-1.3-1.6,0-1.6-1.6c0.4-0.1,0.7,0.7,0.8,0c-0.7-1-2.4-0.1-3.5-0.3c0.4-0.6,1.1-0.7,1.7-0.9c-0.3-0.8-1.3-0.3-1.8-0.8
		c1.5-0.7,4.5,1,5.8-0.2c-0.9-0.6-1.8-0.1-3.3-0.3c1.1-0.1-0.1-2.9-0.6-2.1c-0.7-0.5,0.6-1.1,1.2-0.9c-0.3-0.7-0.8-0.9-1.5-0.8
		c-0.7-0.7,1.5-0.4,2-0.5c-0.5-0.9-2,0-2.5-0.8c-0.3-1.3,0.5-0.8,1-0.9c-0.1-0.9-1.1-0.1-1.5-0.4c-0.9-0.4,2.1-1.3,1.8,0.4
		c0.6-0.7-0.6-1.8-1.1-2.1c1.6-0.3,4.4,0,5.5-0.6c-1.8-1.5-6.4,1.3-7.1-1c0.3-1,1.7-0.2,2.5-0.5c0-0.9-0.9-0.2-1.3-0.4
		c-0.6-1.2,2.3,0.3,2.2-0.5c0.6,0.2-0.2,1.2-0.7,0.9c2.3,1.2,3.3,0.2,5.5,0.7c-0.1,1-1.4,0-1.2,1.3c1.3-0.4,2-2.2,3.5-1.4
		c-1.5-1.2-2.4-0.7-4.3-1.1c0.8-1.4,2.2-1.3,3.5-1c-0.9-1.1-2.6-0.7-4-0.7c2.6-2.5,7.2-1,9.9-4.2c-1.1-0.3-1.4-0.8-3-0.7
		c0.6-0.9,2.3-1.8,3-1.4c-3.7-2.2-8.9-1.8-13.9-1.6c1.6-1.2,0.7,0-0.1-1.7c1.2,0,2.3-0.1,3.5-0.1c-2-1.6-2.9-0.2-4.8-0.3
		c0,0,0.3-0.5,0.5-0.4c-1.1,0-2.5,0.1-4.3-0.7c2.9-1.1,7.4,0.9,11.6,0.4c-0.5-1.6-2.6-0.3-3.6-1.1c-0.5-0.9,4.1-0.9,5.5-1
		c-1.1-1.8-2.5-2.3-5.8-1.9c-0.6,0.3,0.3,0.6-0.2,1.3c-1.2,0-2.3,0.1-3.5,0.1c0-0.5,0.4-0.4,0.7-0.4c-0.1-0.9-1.1-0.1-1.5-0.4
		c-0.6,0.3,0.3,0.7-0.2,1.3c-1.4,0.8-1.9-1.6-2.8-0.3c1.2-1,5-1.9,7.4-2.4c-1.6-0.9,1.4-1.5,0.5,0c1.7-1.1,2.8-0.7,5.5-1
		c-0.7-1.8,2.2,0.1,3.5-1c0-0.4-0.3-0.3-0.5-0.4c1.4-0.4,3.7-1.3,6-1.5c-2.6-0.7-5.1,0.5-7.8,0.3c1.6-1.2,4.9-1.9,6.5-1.9
		c-0.2-1.9-1.3-0.2-1.3-1.7c1.4-0.5,2.1-0.1,3.5-1c-2.7-1.7-7.3-0.1-10.8-0.5c0.4-1.5,1.3-0.4,0.4-2.1c1.9,1.7,3.6-0.1,6.5-0.2
		c-2.9-1-5.6,0.5-7.8-0.1c2-1.3,5.1-0.9,7.2-1.9c0.4-0.2-0.1-0.5,0-1.3c15.1-4,26.7-3.5,43-4.9c0.1-0.7-0.2-0.8-0.5-0.8
		c0.5-0.8,2.4-0.5,2.5,0.8c1.9,0.3,6.4-1.2,5.5-1c20.9-2.8,48.5-6.4,71.2-2.9C183.4,197.9,182.5,198.4,182.7,199.3z M205.9,236.2
		c1,0.2,0.7-1.8,0.2-2.1C205.5,234.9,206.3,235.4,205.9,236.2z M53.1,267.3c-1.9-0.2-3.9-0.4-5.8-0.6
		C48.8,268.6,51,267.5,53.1,267.3z M53.1,209.7c0,0.3,0,0.6,0,0.8c-0.2-0.1-0.2,0.2-0.2,0.4c-0.5-1-0.3-0.4-1.3-0.4
		C51,210.2,52.6,209.9,53.1,209.7z M39.6,232.6c0.8,0,2.6-0.7,3.5,0.3C42.3,233.8,40.5,232.9,39.6,232.6z M43.5,238.9
		c0.2-1,1.4-0.2,2-0.5c1.1,0.7-1.8,0.2-0.7,0.9C44.8,240,43.9,238.9,43.5,238.9z M32.3,240.5c1.4-1.3,3.3,0.5,5.3-0.2
		C36.5,242.5,34.3,239.7,32.3,240.5z M37.8,241.2c1.3-1.3,3.8-0.2,5.8-0.2C42.7,242.2,40,240.3,37.8,241.2z M40.6,249.1
		c0.9-1.3,2.3,0.2,3.3,0.3C43.1,250.1,41.6,248.8,40.6,249.1z M52.6,260.1c0.6-1.1,2.2-0.2,2.3,1.2
		C54.3,260.6,53.5,260.2,52.6,260.1z M145.7,283.1c-0.3,3.1-3.3,0.1-4,1C142.6,282.8,144.5,284,145.7,283.1z M164.4,284.6
		c0.5-1.5,4.1-0.9,3.8,0.3c0.8-0.1,1.1-1,2-0.9C168.6,286.5,166.8,283.9,164.4,284.6z"/>
	<path class="st1" d="M458.9,183.4c-0.3,1.5,0.8,0.2,0.8,1.2c-2.5,0.5-4.8,0.1-6.8,0.7c2.7,1.9,5.5-0.2,7,3.6
		c5.5-1.3,9.1-1.6,12.5-6.8C468.8,184.5,462.8,186.4,458.9,183.4z M472.9,184.7c-0.4,0.9-0.6,2.2-0.9,3.4c-0.4-0.6-0.6-1.6-0.6-2.9
		C472,185.1,472.1,184.4,472.9,184.7z M431.5,187.4c-2.2,1.2-4.9,1.8-7.5,2.4C426.1,188.3,428.8,187.9,431.5,187.4z M296.6,193.3
		c1.1-1.2,2.9,0,4.1-0.1C300.1,194.5,298,193.5,296.6,193.3z M422.8,189.8c-0.6,1-1.9,0.9-3.1,1C420.4,190,421.7,190.1,422.8,189.8z
		 M319.9,194.2c0,0.4,0,0.8,0,1.3c-0.4,0.2-0.5-0.3-0.5-0.8c-0.2,0.2-0.4,0.5-0.7,0.4C318.7,194.2,319.3,194.2,319.9,194.2z
		 M337.5,194.5c-0.7,0.9-2.3-0.4-3.7,0.1C334.9,194,336.7,193.2,337.5,194.5z M426.7,190.9c0.7-1.3,1.9,0.3,2.7,0.3
		C429,192.6,426.9,192.5,426.7,190.9z M440.1,190.5c1.8-1,4.6-0.3,6.8-0.7C445,190.9,443,190.9,440.1,190.5z M355.3,194.3
		c0.3,0.1,0.4,0.7,0.8,0.8c-0.1,1-1.2,0.2-1.7,0.5C354.4,194.7,355.4,195.4,355.3,194.3z M417,193c0.5-1,2-0.2,2.9-0.5
		C419.5,193.4,417.9,192.7,417,193z M321.9,196.7c3.1-1.1,8.1,1,11.5,0.4c-0.3,2.5-2,0.4-2.9,1.8c0-0.4,0.3-0.3,0.5-0.4
		C328.3,197.8,324.8,198,321.9,196.7z M343.7,197.6c-2.2,1-6.8-0.2-9.5,0.8c0.3-0.8,0.2-1-0.5-0.8
		C336.1,196.4,341.2,197.2,343.7,197.6z M347.1,198.4c0.1-0.5,0.4-1.1,0.5-0.4c0.7,0.1,3-0.5,2.5,0.3
		C349.1,198.3,348.1,198.3,347.1,198.4z M292.8,202.4c0.4-1,1.9-0.2,2.7-0.5C295.1,202.8,293.6,202.1,292.8,202.4z M298.9,209.8
		c0.8-1,2.7-0.2,3.9-0.6c1.4,0,2.8-0.1,4.1-0.1C304.8,210.1,301.5,209.4,298.9,209.8z M297.2,210.7c-0.9,1.5-1.6,0-2.9,1
		C294.4,209.8,296.4,211.2,297.2,210.7z M302.7,214.3c-0.6,0-1.1,0-1.7,0.1C301.2,213.9,302.7,212.5,302.7,214.3z M311.3,214.9
		c-1.3-0.4-2.2,1.2-3.2,0.1C308.8,215.5,310.7,212.8,311.3,214.9z M304,215.1C306.6,213.6,306.3,215.8,304,215.1L304,215.1z
		 M310.7,218.3c-2.2,1.1-2.4,1.1-5.3,1C306.9,217.5,308.2,218.3,310.7,218.3z M304.1,225.7c-0.4,0.7-1.1,0.9-1.9,0.9
		C302.4,225,303.4,225.7,304.1,225.7z M307.8,233.6c0.1-0.7,1.8-0.8,2-0.1C309.7,235.6,308.4,233.3,307.8,233.6z M302,233.8
		c0.2,1.7-1.3,0.5-1.9,0.9C300.2,233.2,301.3,234.9,302,233.8z M305.9,234.5c-0.7,1.1-2.5,0.3-3.4,0.1
		C303.1,233.2,304.6,235,305.9,234.5z M295.9,236.1c-0.3,1-1.7,0.2-2.4,0.5C294.3,235.7,295,235.6,295.9,236.1z M486.2,236.3
		c-0.3,0.8-1.5-0.4-2.4,0.1C483.1,235.7,485.9,235.6,486.2,236.3z M304,244.3c0.4,0.4,0.7,1.2,1.5,0.8c0.2,0.3-2.2,1.3-2.4,0.9
		c0-0.5,0.4-0.4,0.7-0.4C303.3,244.6,303.9,245.1,304,244.3z M312.4,253.3c-1.5,1-3.9,1.7-6.5,1.9
		C307.6,253.9,309.3,254,312.4,253.3z M303.9,255.3c-0.8,2-2.9-0.2-4.6,0.6C299.4,255,302.6,255.6,303.9,255.3z M304.8,257.8
		c-0.5,1.2-1.4-0.5-2.4,0.1C301.9,257,304.2,257.7,304.8,257.8z M308.4,258.6c0.5-1,2-0.2,2.9-0.5
		C310.9,259,309.3,258.3,308.4,258.6z M483.2,277.4c0.7-1.4,1.7,0.6,2.7,0.3c-0.4,0.7-1.3,0.6-1.9,0.9
		C484,277.8,483.7,277.3,483.2,277.4z M450.8,278.6c0,1.3-1.2,1.6-1.7,0.9C449.3,278.7,450.3,279.1,450.8,278.6z M441.8,280.6
		c-0.1,1-1.4,0.2-1.9,0.5C440.3,280.1,441.1,280.1,441.8,280.6z M459.4,280c2.9-1.4,6.4,0,8.8,1C465.8,281.4,462.4,279.9,459.4,280z
		 M380.1,288.7c-0.7,1.1-2.3,0.2-3.2,0.1C377.6,287.3,379.2,288,380.1,288.7z M378.7,194.7c-0.4,3.7,7.5,0.3,9.6,2.2
		c-1.1-1.6,1-0.1,1.7-0.9c-0.6,1.1,0.4,0.8,1,0.8c-1.9-2.4,4.9,0.1,7.8-0.7c-5.8-1.4-8.8-1.6-14.2-0.8c0-1.5,1.3-0.2,2.4-1.4
		c-0.2-0.7-0.9-0.7-1.3-1.2c1.3-1.5,1.9,2.2,3.5,1.6c-0.2-0.6-0.5-0.8-1-0.8c0.1-0.4,0.5-0.5,0.4-1.3c8.9,0.6,18.2,1.7,27.8,0.3
		c2.6,1.4,6.7,0.8,10.5,0.9c14.1,0.4,27.4-3.1,41.6-4.4c-0.1,0.5-0.3,0.9-0.7,0.9c3.2,1.2,6-1.6,8.7-2.4c-0.5,1.4-1.9,1.5-2.9,2.2
		c1.5,0.4,4.4-0.5,6.3-0.6c-1.4,1-3.3,1.3-5.3,1.5c1.6,3.1,4.7,2.2,6.2,4c-0.4-0.5-0.2,2,0.6,2.5c1.3,1,0.1-0.6,0,0.4
		c0-0.3,1.2,2.1,0.3,2.1c2.2,0.6,4.1,1.6,6,2.8c-1.9,0.4-6.7-3.6-7.5,1.5c1.2,2.8,2.6,5.4,5.5,4.9c0.2,0.7,0.2,1.7,0.6,2.1
		c0,0.7-1-0.4-1.7,0.1c-0.2,0.3-0.2,1-0.7,0.9c0.2,1.2,0.9,1.7,1.3,2.5c-0.5,0.7-2.2-2.6-2.2,0.9c0.1,1.2,1,0.7,1.7,0.8
		c0,0.9-0.6,0.9-1.2,0.9c0.3,2,0.9,2.9,0.1,3.8c1.4,2.3,1.6,1.8,3,3.3c-0.3,0.9-1.7-0.2-2.2-0.3c-0.2,0.4-0.5,0.9-0.7,1.3
		c0.5,1.3,1.9-0.5,2.2,0.3c0,0.6,0,1.2,0.3,1.3c-0.6,0.9-1.6-1.1-2.7-0.8c0.1,0.6,1,0.8,0,0.8c0.4,0.8,1.5,0.2,2,0.8
		c-0.5,0.4-1.7,0.9-2.7,0.9c-0.1,1.1,0.5,0.8,0.8,1.2c0.5,0.1,0.8-0.4,0.7-1.3c0.9,1.2,1.1,2.7,2.1,2.9c0.5,1.1-1,0.9-0.2,1.3
		c-0.7,1.9-4.3-0.1-5.1,1.4c1.3,0.9,2.8-1,4.4,0.7c-0.7,1.4-2.6,0.1-4.6,0.6c0.9,1,1.8,2.3,1.8,3.7c-0.1,0.6-0.6,0.4-1,0.5
		c0.5,2.4,2.4,2.2,4.2,2c0,0.6,0,1.2,0.3,1.3c-0.5,0.5-1.1,0.2-2.2,0.5c0.1,0.9,1,0.1,1.5,0.4c-0.1,1-1.2,0.2-1.7,0.5
		c0-0.4,0-0.8,0-1.3c-0.6,0-1.3,0-2,0.1c0.1,1.2,1,0.7,1.7,0.8c-0.2,3,1.2,4.1,2.3,3.3c0.3,0.4,0.1,1.6,0.8,1.2
		c-0.3,0.6-0.7,0.9,0.3,0.8c0,0.4-0.3,0.3-0.5,0.4c0.1,0.9,1.3,0,1.5,0.8c-1.6-0.4-3.6,0.5-5.1,1c0.6,1.2,1.7-0.1,2.4-0.1
		c0,0.8-0.8,0.3-0.7,1.3c0.7,2.1,3.4-0.3,4.2,0.7c2.8,0.3-0.7,0.1-1.2,0.9c-0.7-0.5-1.7-0.5-2.4,0.1c0.1,0.7,0.5,1,1,0.8
		c-0.1,1.4-1.8-0.4-1.7,0.5c-0.2-0.4-0.1-1.7-1.3-1.2c0.6,1.6-0.5,5-2,5.6c0.2,0.6,0.8,0.6,1.2,0.8c0.2,1.1-0.5,0.8-0.7,1.3
		c1.1,2.3,3.7-1,4.4,1.5c-0.3,1.5-4.3,0.4-4.1,2.7c-1.4,1-3.9-1.1-5.6,1c3.3,0.6,7.1,0.2,9.6,2.2c-0.2,0.8-0.4,0.1-0.7,0
		c-0.3,0.1-0.2,0.8-0.2,1.3c-1.9-0.1-2.7,0.2-3.9-0.7c-1.2,1.7-3.5,1.9-5.8,1.9c0.7-1,3.5-1.4,5.1-1.4c-3.4-1.2-5.7,0.9-9.3,0.3
		c0,0.4,0.3,0.3,0.5,0.4c-0.3,0.7-1.1,0.7-0.9,2.2c-7.8,4.3-20.4,3-28.4,4c0-0.4,0.3-0.3,0.5-0.4c-1.7-0.3-4.2,1.1-6.6,0.2
		c0-0.9,0.6-0.9,1.2-0.9c-4.1,0.4-7.5,2.2-11.9,0.8c-3.4-1.1,1-0.4,1-0.5c-0.5-2.2-4.4,1.7-5.1,0.6c0-0.6,0.7-0.2,0.7-0.9
		c-0.6-0.8-1.2,0.5-2.2,0.9c0-0.5,0.5-0.3,0.5-0.9c-9.1-0.3-18.4,2.4-28,2.7c-0.4,1.1,1.1,0.8,0.3,1.3c0.4,0.8,0.8-0.3,1.2,0.8
		c-0.1,0.8-1.1,0.1-0.7,1.7c-0.7-0.8-0.7-2.8-1.4-3.8c-4.9-2.1-8.7,2.3-14.1,2.2c0.2,0.8,0.7,1.1,1.3,1.2c0,1.7-3.2-3.6-3.7,0.1
		c-3-1.8-5.1-1.1-8.6-0.1c0-0.8-0.3-0.9-0.3-1.7c-0.7,0.3-0.6,1.9-1.9,1.3c0-0.8,0.8-0.3,0.9-0.9c-2-1.2-4.2,0.7-6.3,0.6
		c0.5-0.9-0.1-0.8-0.5-1.3c-0.1,0.6-0.1,0.7-0.7,1.3c-0.4-0.3-0.2-1,0.2-0.8c-3.3-0.6-8.8,0.5-13.6,1.3c0.1,0.9,1,0.1,1.5,0.4
		c-0.1,0.4-0.7,0.7-0.2,0.9c-7.8,0.3-17.2,0.1-23.7-0.9c0.6-1.5,2.2-1.3,3.6-1.4c0.6-0.1-0.4-0.7-0.1-1.7c0.9,0.3,1.3-0.8,1.7-0.1
		c0.2,1.1-1.2-0.3-0.9,0.9c0.5,1,1.2-1,1.9-0.9c-2-1.7-5.1-0.8-6.9-2.3c-0.3,0.1-0.2,0.8-0.2,1.3c-1.7-1.6-5.3,0.5-7.8,0.3
		c3.9-2.6,9.9-1.5,13.6-2.6c-1.7-2.2-3.4-0.3-4.7-0.7c-0.3-0.1-0.7-1.2-0.8-1.2c-0.2-0.2-0.2,0.9-0.2,0.9c-0.4-0.1-0.7-1.1-1-1.2
		c-1.5-0.5-2.9,1.8-5.1,0.6c0.1,0.5,0.5,0.3,0.7,0.4c-1.4,1.3-1.8-0.8-3.4,0.1c0.2-0.9,3-1,4.6-1c-1.1-2-3.1-0.6-4.7-0.7
		c0.6,0.1-1.7,0.4-0.3-0.4c0.6-0.4,4.1,0,5.1-1.5c0.1,1.3,2,0,3.9,0.3c-1.4-1.5,2-0.7,2.9-0.9c-1.1-0.9-1.4-2.2-2.5-2
		c0.2-1,1.5-0.2,2.2-0.5c-0.8-0.8-2.1-0.8-3.4-0.7c-0.1-0.7,0.2-0.7,0.2-1.3c-1.7,0.9-3.5-0.5-4.1,0.6c-0.8-1.7-2-2.6-4-2
		c-0.6-0.6,1.2-0.4,1.4-0.9c-1.3-1.3-2.5-1.1-3.9-0.7c1.2-2.2,3.4-0.3,5.6-0.2c-0.8-2.5,1.1,0.9,1.7-1.3c0,0.3-0.2,0.4-0.2,0.9
		c1.2,0.5,0.9-1.5,1.9-1.3c-0.7-0.5-1.5-0.3-2.4,0.1c-0.6-0.5,1.2-0.7,1.4-1.3c-0.5-1-2.1-0.2-2.7,0.1c0.9-1.5-0.7-1-1.8-1.2
		c1.8-1,2.7,0.3,4.1-1c0-0.6-1.5-0.6-0.3-0.8c-1.9-0.9-3.8,0.1-4.9,0.2c0.7-1.5,1.3-1.1,2.9-1.4c-0.5-1.9-2,0.8-2.5-1.2
		c0-0.9,1.1-0.2,1.2-0.9c-1.2-1.4-3.5-0.5-5.4-0.7c1.1-2.8,4-1.4,5.8-2.7c-0.5-0.7-2.7-0.6-3.2,0.1c-0.9-0.7,0.4-1.1,0.9-0.9
		c-1.5-1.6-1.4,1.2-2.4,0.1c0.1-1.3,1.4-0.7,1.9-1.3c-0.1-0.5-0.7-0.5-0.7,0c-0.2-1.7,3.1-1.1,4.1-2.3c-0.1-1.1-2,0.6-0.7-0.4
		c-1-0.3-0.9-0.7-2-0.8c1.8-0.5,1.6-1.6,3.4-1c-0.3-0.6-1.1-0.4-0.8-2.1c-0.6-0.1-0.1,1.7-0.9,1.3c0-0.4,0-0.8,0-1.3
		c-1.7-0.1-2.4,0.5-3.7,0.1c1.9-1.2,2.5-1.5,4.4-1c-1-1.9-4.1-1.4-4.9-0.3c-0.3-0.9,0.2-0.6-1-0.4c0.6-0.8,0.5-0.9-0.5-0.8
		c0.3-1.1,1.7-0.2,2.2-0.1c0.1-2.7-1.5-0.8-2-1.6c1.1-1.2,2.5,0,3.4-1c-0.3-0.1-1.4-0.4-2.5-0.3c1.1-0.6,2.4-2.7,3.6-1.8
		c-0.4-1.9-1.8,0.5-2.7-0.8c1-1.7,2.7,0.3,4.1-1.4c-0.2-1.1-1,0.8-1.5-0.4c0.1,1.2-2.2,0.3-2.9-0.3c2.9-0.6,4.4-0.3,7.5-1.5
		c-1.7,0.1-3.1-1.2-5.2-1.5c1.1,1.6-0.7,0.4-1-0.4c-0.2,0.9-0.9,1-1.7,0.9c0-0.4,0.3-0.3,0.5-0.4c-2.9-1.2-6.1-0.2-10-0.9
		c5.1-1.8,10.3,0.6,13.6-1.3c-5.5-1.3-8.5-1.4-15.7-1.6c2.9-1.7,7.2,0.2,10.2-1.6c0.4,0.3,0,0.6,0.3,1.7c1-0.9,5.2,0.2,7.1-0.2
		c-0.1-0.5-0.5-0.3-0.7-0.4c0.4-1.4,1-0.3,1.9-0.5c-0.6-2.3-2.5-0.1-4.2-0.7c0.1,0.5,0.5,0.3,0.7,0.4c-0.3,1.7-1.5-1-1.5,0.1
		c-0.7-0.4,0.3-1.4,0.7-1.3c-0.2-0.7-0.9-1.3-0.1-1.7c-0.1-1-0.8-0.9-1-1.7c-0.2,0.2-0.4,0.5-0.7,0.4c-0.7,0-1.5,0.1-2.2,0.1
		c0.1-1,1.4-0.2,1.9-0.5c2.5-2.1,4.2-1.6,7.2-3.6c0.7,1.8,2.2-0.9,3.6-0.6c-0.4-0.1-2.9-2.6-3.4,0.1c-0.4-0.3-0.1-0.8,0-1.3
		c-0.7,0.4-0.8,0.6-1.2-0.4c-0.4,0.2,0.2,0.7-0.2,0.9c-0.5-0.6-0.9-1.2-2.5-1.6c-0.1,0.7,0.2,0.8,0.5,0.8c-4.6-0.3-9.3-0.2-14.7-0.8
		c-0.2-1.2,1.3,0.3,1.2-0.9c-0.9-1-2.7-0.1-3.9-0.3c-0.2,1.5,1,0.6,1.5,0.8c0.6,0.6-2,0.7-2.2,0.1c0.6-2.2,3.3-1.1,5.1-1.5
		c-0.1,0.4-0.2,0.7-0.2,1.3c0.2,0,0.5,0,0.7,0c0-1-0.2-0.8,0.4-2.1c0.6-0.5,0.8,2.8,1,0.4c1,0.4,0.3,1.3,1.3,1.6
		c0.6-2.1,7.3,0.5,10-1.6c-0.3,1.4,0.8,0.3,0.5,1.7c1.5-1.4,1.9-1,3.4-0.5c0.5-0.1-0.4-1.1,0.2-1.7c-0.2-1.6-1.5,1.2-1.2-0.8
		c0.9-0.1,0.8-0.8,1.2-0.9c0.4,0.4,0.6,1,0.6,2.1c0.8,0.2,1-0.6,1.2-1.3c-1,1.3,0-0.8-1.2-0.4c0-0.5,0.5-0.3,0.5-0.9
		c-0.6-0.8-2-0.2-2.7-0.7c2.2-0.6,5.5-1,5.8-2.3c0.1-1,1.3,0.7,0.3,0.8c0.4,0.2,1.9-1.2,3.1-1c-0.3-0.6-0.8-0.8-0.3-1.7
		c-1.1-0.4-0.8,0-1.7,0.5c0.1-0.3,0.2-0.7,0.2-1.3c-0.8,0.5-0.5,1.1-1.2,0c5.7-0.5,13.8-1.4,19.5-2c0.3-1.1,0.9,1,1.5,0.8
		c1-0.2-0.3-1.5,0.7-1.3c1.8,2.1,9.5,0.3,13.2,0c-3.3-0.1-6-0.5-9.1-0.5c5-2,9.9-0.4,13.8-3.4c-0.3,0.7-0.6,1.5-1.2,1.7
		c6.4,0.9,10.7-1.3,15.6-1c-0.1-0.9-0.6-0.9-1.2-0.8C375.7,194.6,378.6,195.9,378.7,194.7z M411.5,194.8c4.3,0.1-2.9-1.5-2.7-0.3
		C410,194.2,410.7,194.8,411.5,194.8z M419,195.4c3.2-0.4,1.6-1.7-0.7-0.4C418.6,195.1,419,194.9,419,195.4z M427.3,195.1
		c0.2,0.7,2.1,0.5,2.9-0.1C429.4,194.6,427.2,194.9,427.3,195.1z M320.4,208.2c0.5-0.3,1.9,0.7,1.7-0.9c-0.6,0-1.1,0-1.7,0.1
		C320.3,207.6,320.3,207.9,320.4,208.2z M322.3,209.4c1.1-0.3,1.7,1,2.2-0.5C323.9,209,321.7,208.6,322.3,209.4z M324.3,215.2
		c1.4,0.3,1.6-1.4,3.1-1C326.8,212.3,324.9,214.7,324.3,215.2z M322.3,214.9c0.5-0.3,1.7,0.6,1.4-0.9
		C323.1,214,322.3,213.8,322.3,214.9z M318.2,258.2c-0.4,0.9,2.1,0.2,2.9,0.3C321,256.9,318.6,257.8,318.2,258.2z M393.6,278
		c0.5-0.3,1.7,0.6,1.4-0.9c-0.5,0-1,0-1.5,0.1C393.6,277.5,393.6,277.7,393.6,278z M299.2,202.6c0.5-1.4,3.2-0.2,4.4-0.2
		C302.5,203,300.3,202.6,299.2,202.6z M484.1,197.4c0.6-0.9,2.5-0.2,3,0.7C486.6,199.1,484.9,198.2,484.1,197.4z M321.2,205.6
		c0.7,0.2-2,0.7-2.9,0.1C319,204.4,320.1,206.2,321.2,205.6z M308.9,209.4c0.3-1.8,1.4,1.8,1.2-0.5c0.3,0.1,0.2,0.8,0.5,0.8
		C310.2,211.1,309.6,209.2,308.9,209.4z M316.2,215.9c0.6,0.3-1.5,0.1-2.7,0.1c0.5-1.1,1.6-1.2,2.4-1.8
		C316.3,215.4,315.2,216.1,316.2,215.9z M295.8,219.2c-0.2-0.1,1.5-0.4,2.4-0.9c0.1,0.7-0.2,0.8-0.5,0.9c1.8,0.7,2.6-0.3,4.6-0.6
		c-0.1,0.9,0.4,0.8,0.8,0.8C301.4,220.7,298,220.3,295.8,219.2z M295.1,227.3c-0.4-0.8,1.9-1.4,2.4-0.9c0,0.3-0.2,0.4-0.2,0.9
		c3.6-0.1-1.1,1.1-1.5-0.4C295.5,226.7,295.5,227.2,295.1,227.3z M310.8,234.8c0.3-0.6,0.1,0,0,0.4c-2.9,0.8-6.4-0.7-2-0.8
		C308.9,234.4,310,235.2,310.8,234.8z M308.6,240.8c0.9,0.2,1.4,3.6,2.7,1.6C311,245.2,308.7,242.4,308.6,240.8z M485.3,239.3
		c0.3,0.1,0.2,0.4,0,0.4c0.8,1.3,2-0.6,2.7,0.3C487.6,240.7,484.3,241.2,485.3,239.3z M307.5,251.4c0.3,0.1,0.1,0.4,0,0.4
		c-0.1,0.7,1.4,0.6,1.2,0c0.4,0.1-0.2,0.7,0.3,0.8c-0.5,0.5-1.2,0.3-2.7,0.5C306.5,252.2,307.4,252.5,307.5,251.4z M306.5,260.3
		c0-1.7,1.3-1.3,1.7-0.5C308.8,260.2,307.1,259.7,306.5,260.3z M472.4,276.5c0.9-1.3,2.2,0.3,3.4-0.1
		C475.9,277.6,473.6,276,472.4,276.5z M347.2,284.3c-0.2-1,1.4-1.2,1.9-0.5C349.7,284.1,347.8,283.7,347.2,284.3z"/>
	<path class="st1" d="M341.1,191.9c1.8-0.6,3.2,1.2,4.3,0.2C344.1,192.1,341.7,190.6,341.1,191.9z M312.7,192.9c-3.2,1-6,0.5-7.9,1
		c-0.5-1.4,5.5-0.6,6.1-0.9C311.4,193,312.1,193,312.7,192.9z M254.4,199.9c12.3-3.2,29.9-3.9,43.6-6.1c-0.5,1.3-3,1-4.9,1.2
		C280.1,196.8,266.4,198.6,254.4,199.9z M286.4,196.3c1.7,1.2,3.6,1,6.8,0.8c1.1,0.6-1.9,0.4-2.7,0.5c-1.9,0.2-3.7,0.7-4.6,0.2
		C286,197.2,286.3,196.8,286.4,196.3z M221.3,199.7c-1,0.7-2.8,0.4-4,0.8C218.1,198.9,220.3,199.5,221.3,199.7z M269.7,198.7
		c-0.2,1.1-1,1.1,0.6,1c0.2,0.5-2.6,0.6-3.6,0.8c0.1-0.3,0.2-0.6,0.6-0.7c-0.1-0.4-0.6-0.3-0.9-0.3
		C266.9,198.7,269,199.4,269.7,198.7z M331.8,197.2c0.5-0.7,1.6-0.8,2.7-0.8c1.4,0.5-2.3,0.2-0.9,0.7
		C333.4,198.1,332.7,196.7,331.8,197.2z M354.2,196.8c0.4-0.8,2.1-0.2,3-0.5C356.8,197.1,355.1,196.5,354.2,196.8z M361.5,196.5
		c1.1,1.4-1.9,1.1-3,1.2C359.2,196.8,360.9,196.5,361.5,196.5z M370,263.6c1.3,0,0,2.2,0.1,3.2C368.6,266.2,370.6,265.3,370,263.6z
		 M303.3,274.8c-0.5,0.8-2.3,0.2-3.4,0.5C300.9,274.3,301.9,274.7,303.3,274.8z M250.8,280.5c-0.6,1.1-4.4-0.1-6.4,0.2
		C246.1,279.2,248,280,250.8,280.5z M240.1,280.9c-0.5,0.8-2.3,0.2-3.4,0.5C237,280.3,239.3,280.3,240.1,280.9z M228.1,281.6
		c0.3-0.5,3.2-1,3.1,0.2C230.2,281,228.9,282.2,228.1,281.6z M354.6,190.8c0.4-0.6,1.6,1,2.5,1c-0.2,1.3-1.6-0.8-1.8,0.4
		C354.4,191.9,355.8,190.8,354.6,190.8z M135.3,211.8c-0.7-1.4-2.3-1.5-3.5-2.3c2.5-3,8.1,0.5,10.6-2.8c5.4,0.5,12.5,0.1,16.8-1.6
		c0-0.8-1.1-0.1-1.5-0.3c10.2-1.1,21.9,1.3,33.7,0.2c2.3-0.1-1.5,0.6-1.5,0.4c0.1,1.2,3.8-0.2,3.1-0.1c3.3-0.5,10.5-0.9,12.8-0.8
		c0.1-0.8-0.5-0.7-0.9-0.7c11.9-1.9,30.4-1,40.6-3.9c0,0.2,0,0.5,0,0.7c2.2-1.6,5.4-0.8,7.6-1c-4,1.7-12.3,1.4-17.7,2.7
		c4.6,0.6,10.8,0,14.4,0.2c-3,0.7-6.5,0.9-10.1,1.1c4.6,1.3,10.2-0.2,15.9-0.2c-1.2-0.8-3.6,0-5.2-0.2c1.3-2,3.4-1.2,4.9-1.2
		c14.2,0.2,27.9-1.7,41.6-2.5c0.9-0.1,1.8-0.6,2.7-0.8c11.4-2.1,23.8-0.4,34.9-0.9c0-0.3-0.4-0.3-0.6-0.3c2.9-0.6,7.1,0.2,9.8-1.4
		c-0.3-1.1-2.7,1.3-2.8-0.6c0.9,0.4,3.1-0.4,4.9-0.2c0-1.4-0.6-0.2-1.2-0.3c1.1-1.3,2.2-0.9,3.9-1.9c0.1-0.6-0.3-0.7-0.6-0.7
		c0.3-1,1.3,0.1,1.8-0.1c-0.8,1.2-1.6,2.3-3.6,2.2c1.4,1,2.8,2,5.3,1.6c-1.7,1.8-5.3,0.7-9.4,1.4c0.1,0.3,0.3,0.6,0.6,0.7
		c-0.1,0.8-0.8-0.4-1.2-0.3c-0.7,0.1-0.6,0.9-0.6,1.8c6.1,0.3,10.2-3.1,15.3-1.9c-0.8,0.9-1.6,0.5-3.3,0.8c0.1,0.4,0.6,0.3,0.9,0.3
		c-2.2,0.7-4.9,0.9-7.6,1c3.7,1.2,8.2,0.6,10.4-0.4c-0.1-0.4-0.6-0.3-0.9-0.3c1.2-2.1,3.3-0.4,4.6,0.5c-0.1,0.4-1.8-0.2-2.8,0.1
		c0.6,0.7,1.2,1.3,2.2,0.6c-1,1.6,3.6,2,5,1.6c0.1-1.4-0.9,0.2-1.3-1c0.1,1.3-1.2,0.2-2.7,0.4c-0.2-0.7,0.4-0.7,0.9-0.7
		c0-0.3-0.4-0.3-0.6-0.3c2.1,0,4,0.1,5.2,0.5c-0.9-0.1-0.8,0.8-0.9,1.8c2,1.8,4.6,2.8,4.8,6.9c-1.4-1.7-2.2-4.4-4.7-3.7
		c-0.2,1.4,1.1,4,2.9,4.1c0.2,0.5-1.7-0.2-0.6,0.7c0,0.7-1.2-0.2-1.5-0.3c1.1-0.6-0.2-1.4-1.3-1.4c0.5,1.1,0.8,2.4,2.2,2.4
		c-0.9,0.8,0,1.6-0.5,2.5c-1.2-0.4-1-2.4-2.2-2.7c-0.9,1.1,1.8,1.5,0.7,2.8c0.1-0.2,1.7,1.3,1.5-0.1c-0.4,1.4,0.2,3.2,2,3.8
		c0.3,1.1-0.5,3.3,0.4,2.1c0.9,0.5-0.6,2.1-1.2,1.1c0.8,1.3,1.2,3.2,2.3,4.2c-0.1,0.6-0.5,0.8-1.2,0.7c0.2,2.1,0.2,2.4,1,3.1
		c-1,0-1,1-2.1,0.8c0.6,1.3,0.9,1.4,1.9,1.7c-1.3,0.9,0.9,1.9,0.7,2.8c0.8-0.4,1.6-0.5,2.4-0.1c0.5,0.8-1.6-0.5-1.8,0.8
		c0.4,0.8,1.6,0.5,1.9,1.3c-0.4,0.6-1.6,0.3-1.5,1.5c2,2.6,1.3,7.8,4.6,8.7c0.1,0.4,0.1,1.4,0.7,2.1c-0.4-0.5-1.8-0.4-2.1,0.1
		c0.1,0.9,0.5,1.4,1.3,1.4c-0.3,1.1-1.2-0.2-1.5-0.3c-1,0.6-1,1.3-1.2,2.2c-2.3,0.1-4,0.3-4.8,2.6c0,1,0.8,1,1.6,1
		c0.4-0.1,0.3-0.7,0-0.7c0.4-0.6,2.1,1.5,1.3,2.4c1.1-0.3,1.2,0.7,2.2,0.6c0,1.7-0.7-0.7-1.8,0.1c1.8,0.6-0.2,1.1-0.9,1.8
		c0.1,0.9,1.2,1.1,0.4,2.1c0.4,0.9,1.2-0.9,1.2,0.7c-2,0.9-3.1-0.5-4.9,0.2c0.5,0.9,1,1.1-0.3,0.7c-0.1,0.2-0.5,1.6,0.4,1.8
		c-0.2,0.5-0.6,0.7-1.2,0.7c0.3,0.7,1.4,0.5,1.3,1.7c-2.6,0.6-2.6-2-5.2-1.2c-0.1-0.8,0.9-0.4,0.9-1.1c-3.6,1-5.1,4.3-9,4.9
		c0.4-1.7-3-0.3-2.4,1.5c-4.5-0.5-3.1-1-8,0.3c0.6,0.9,1.6,1.5,3.1,1.3c-0.8,2.2-3.5,1.2-5.8,1.3c1-0.8,0.2-0.8-0.9-0.7
		c0,0.3,0.4,0.3,0.6,0.3c-7.3,1.2-15.7,0-24.2,0.5c-0.1-0.6,0.3-0.6,0.3-1.1c-3.7-0.5-6,1.1-1.2,0.7c-0.1,0.6-3.3,0.7-4.6,1.2
		c1-0.6-0.1-1.1-0.7-1.7c-0.8,1.7-2.3,0.7-4.3,0.9c0.5-1.2,1.1,0,1.8-0.8c-0.6-0.8-2.4-0.1-3.1,0.1c0.1,0.4,0.6,0.3,0.9,0.3
		c0,0.8-1.3,0.2-1.8,0.4c0-0.3,0.3-0.4,0.3-0.7c-3.4,0-4.7,0.4-7.6,0.6c-0.4,0.2,0.1,0.4,0,1.1c-1.5-0.9-1.4,0.8-3.1,0.1
		c0.4-1,1-0.5,2.4-0.8c-2.2-0.4-5.3-0.9-7,0.2c0.5,0.7,2.1,0,2.8,0.6c-1.2,1.1-3.9,0.5-5.5,0.5c1.3-1.9-1.7,0.8-1.9-0.6
		c-0.7,0.2,0.4,0.5-0.3,1.1c-2.5-0.2-4,0.7-6.4,0.6c0.6-1.1,1.4-0.1,2.1-0.8c-1.6-0.9-2.5,0.9-5.2,0.5c1,0.9,2.1-0.1,2.5,1
		c-0.4,0.5-1,0.7-1.8,0.8c0.2-0.3,0.3-0.6,0.3-1.1c-9.6,0.8-13.8,1.7-23.5,2.6c0-0.3,0.4-0.3,0.6-0.4c-8.6-2.9-18.3,1.2-27.8,1
		c0.3,0.5,0.8,0.7,1.6,0.7c-1.9,1.3-3.9-0.4-5.8-0.2c1.5,1.8-1.4-1.2-0.3,1.1c-1.4,0-2.9,0.1-4.3,0.1c0.2-0.5,0.7-0.8,1.5-0.8
		c-11.5-0.4-25.4,1.4-35.2,0.5c0,0.3,0.4,0.3,0.6,0.3c-6.6,1-19.4-3.6-26.1-2.6c-0.9,0.1-1.1,1.5-1.8,1.1c0,0.4,0.1,0.6,0.3,0.7
		c-0.6,1.1-1.2-2.4-2.5-0.6c-0.4-0.7,2.2-1,3-1.5c-4.3-1.8-9.2-1.9-13.8-0.9c1.7-1.5-2.1-1-3.4-0.9c-0.4-0.6,2.7-0.3,3-1.2
		c-1.1-1.1-5.4-0.9-6.4,0.2c-0.3-0.1-0.2-0.3,0-0.4c0-0.3-0.4-0.3-0.6-0.3c-0.1-0.8,1.1-0.2,1.5-0.4c0-0.8-1.1-0.1-1.5-0.3
		c1.5-1.1-0.8-1.6-2.2-1.3c-0.3,0,3.2-1.8,1.1-2.5c0.9-0.6,1.8-1.2,2.1-2.5c-0.4-1.5-1.7-1.8-1.4-4.2c-0.7-0.5-2.5,0.7-4,0.5
		c0.3-0.6,1-0.7,1.5-1.1c-0.8-1.3-2.4-2.2-1.4-3.8c-0.1-0.4-0.6-0.2-0.6-0.7c-0.8-0.2-0.6,0.7-0.9,1.1c-0.7-1,0.7-2.6,2.4-2.2
		c-0.3-1.3-1.4-1.5-2.8-1.3c-1-0.5,1.3-0.4,1.8-0.4c-0.4-0.7-1.9-0.1-2.5-0.6c0.1-0.8,1.5-0.2,2.1-0.4c0.5-0.5,1.5-1.8-0.1-1.8
		c0-0.7,1-0.3,0.9-1.1c-1.4-0.5,0.9-1.1-1-1c0.1-0.5,0.8-0.3,1.2-0.4c0.4-2.3-1.8-1.4-2.8-2c0.2-0.8,1.7-0.2,2.4-0.4
		c1.1-0.5-0.1-1.5,0.8-2.1c-0.2-0.8-0.5,0.4-0.9-0.3c0.3-0.5,0.5-1.1,0.9-1.4c-1-1.1-4-0.7-0.3-1c-0.6-0.8-2.2-0.5-3.1-1
		c0.8-0.8,2.8,0.1,4,0.2c1.2-0.8,0.7-1.7,1.1-3.6c-0.8-0.9-2.8-0.1-3.4,0.5c0,0.6,0,1.2,0.1,1.8c-0.8-0.4-0.6-1.5-0.1-2.1
		c-0.1-0.7-1.3,0-1.6-0.7c1.6,1.3,3.8-5.2,2.2-7.5c-0.5-0.7-1.9,0.5-2.5-0.3c-0.2-0.3,2-0.7,2.4-0.4c0.1-2.2-1.5-2.3-3.1-2.4
		c0-0.8,0.7-0.8,1.5-0.8c-0.2-2-2.7-1.1-4-1.6c1.9-0.1,5.6-0.3,5.4-3c-0.6-0.2,0.3-0.6,0.3,0c1.8-0.4,1.2-2.4,2-3.2
		C130.4,216,133.3,214.4,135.3,211.8z M361.4,203.2c1.9,1.4,3,1.6,5,2.6C365.9,203.8,362.5,203.3,361.4,203.2z M293.3,200.7
		c2-0.2,3.1,0.5,4.6-0.5C296.8,199.8,293.9,200.1,293.3,200.7z M330.7,200.8c0.9,0.2,1.1-0.4,1.8-0.4c4.4-0.3,0.4-0.2-1.2-0.7
		c0.7-0.8,3.3,0.8,3.9-1.2c-3.6,0.4-5-0.2-6.7,1.6c-0.7-0.8-2.4-0.8-3.4,0.1C327.8,201.2,330.8,199.1,330.7,200.8z M284.8,201.7
		c1.6-1.1,3.7,0.6,4.3-0.9C287.7,201.2,285.2,200.3,284.8,201.7z M211.7,204.6c1.4,0.3,3.2,0.1,4.6-0.5
		C214.9,203.5,212.9,204,211.7,204.6z M220.2,204.3c1.8-0.3,2.5,0.3,3.3-0.8C222.4,203.5,220,203.9,220.2,204.3z M165.2,206.9
		c1.1,1.2,8.1-1,8.9-0.7C172.4,205.3,166,207.8,165.2,206.9z M364,207c-0.2,0.1-0.6,0-0.6,0.4c1-0.6,1.4,1.5,1.8,0.3
		c-0.4-0.2-1-2.1-1.6-1C363.9,206.7,364.1,206.7,364,207z M369.7,247c0.5,0,1,0,1.5-0.1c0.1-0.9-1.8-1.1-1.9-0.6
		C369.6,246.4,369.7,246.6,369.7,247z M370.7,248.8c0.7-0.2,1.4-0.5,1.5-1.5C371.2,247.3,370.7,247.8,370.7,248.8z M371.9,249.4
		c0,0.7-0.8,0.5-0.6,1.4c0.4,0,0.3,0.6,0.6,0.7C373.1,250.2,372,250.6,371.9,249.4z M264.1,277.2c0.8-0.6,3,0.6,3.6-0.8
		C266,275.8,265,276,264.1,277.2z M278.2,275.6c-1.5-0.5-2.6-0.1-3.4,0.1C275.9,276.3,277.4,275.9,278.2,275.6z M253.2,279
		c6.2-0.4,10.7-0.2,15.9-1.3c0.8,0,1.6-0.1,2.4-0.1c0.6,0.1,2.8-0.2,1.2-0.4c-4.2-0.5-9,1.7-11.9,0.4c0.4-0.2,1.6,0.4,1.5-0.4
		C258.4,277.8,255.6,277.7,253.2,279z M213.1,200.6c-0.6-0.7-2.5,0.8-3.4-0.2c-0.1-0.8,1.1-0.2,1.5-0.4c-0.5-1.2-2.2,0.1-3.4-0.9
		c2.1-0.7,3.9-0.5,7-1.3c0,1.3-2.3,0.3-2.7,1.2C213.3,200.1,214.3,199.7,213.1,200.6z M264.5,200.3c-0.5,1.8-4.4,0-5.5,1.2
		C258.8,199.5,262.9,201.3,264.5,200.3z M187,201.2c3.8-0.6,13.6-1.6,20.1-2.5c-0.5,1.2-2.8,0.7-3.9,1.2c1.1,1.4,3.1-0.5,4.6,0.5
		c-10.4,1.4-19.6,2.6-29.7,1.7c-3.8,1.4-11.7,0.4-18.4,0.6c-0.5-0.9,3.4,0.1,4-0.8c-3.6-0.6-6.6,0.9-10.4,0.7
		c0.2,1.4,2.2,0.7,3.1,1.3c-3.4,1.4-7.4-1.2-10.4-0.3c10.3-3.2,27.5-2,41.9-2.9C187.9,201.2,187.4,201.1,187,201.2z M196.2,200.9
		c1.4,0.7,3.8-0.1,5.2-0.5C199.9,200,197.3,199.8,196.2,200.9z"/>
</g>
<g>
	<path class="st2" d="M107.1,218.3c13.2,0,23,8.6,23,22.4c0,13.1-9.8,22.4-23,22.4c-13.2,0-23-8.6-23-22.4
		C84.1,228.1,93.3,218.3,107.1,218.3z M107.1,253.8c8.2,0,12.5-5.8,12.5-13.1c0-7.9-5.5-13.1-12.5-13.1c-7.2,0-12.5,5.2-12.5,13.1
		C94.6,248.1,100.2,253.8,107.1,253.8z"/>
	<path class="st2" d="M134.9,219h35.9v9.3h-13v34.1h-9.9v-34.1h-13V219z"/>
	<path class="st2" d="M178.5,219h9.9v18.9l14.2-18.9h11.9l-16.3,20l17.6,23.3h-12.6l-14.8-20.6v20.6h-9.9V219z"/>
	<path class="st2" d="M223.2,262.4V219c2.4,0,9.9-0.1,13.3-0.1c13.2,0,17.5,6.9,17.5,14.4c0,7.7-6,14.6-16,14.6
		c-0.9,0-3.3,0-4.8-0.2v14.7H223.2z M233.1,228.3v9.9c1.4,0.2,3.1,0.3,4.5,0.3c2.6,0,5.8-1.1,5.8-5.3c0-3.8-2.5-5-6-5
		C236.2,228.2,235.2,228.3,233.1,228.3z"/>
	<path class="st2" d="M272.4,232.6c1.5-0.2,2.9-0.2,3.8-0.2c10.7,0,15.8,5.8,15.8,14.6c0,9.3-6.4,15.5-17.9,15.5
		c-4.5,0-9.1-0.1-11.6-0.1V219h9.9V232.6z M272.4,242v11c1.1,0.1,2,0.2,2.9,0.2c4,0,6.2-1.9,6.2-6c0-3.8-2.5-5.6-6.1-5.6
		C274.6,241.6,273.7,241.8,272.4,242z M296.3,219h9.9v43.4h-9.9V219z"/>
	<path class="st2" d="M313.9,219h35.9v9.3h-13v34.1h-9.9v-34.1h-13V219z"/>
	<path class="st2" d="M367.4,232.6c1.5-0.2,2.9-0.2,3.8-0.2c10.7,0,15.8,5.8,15.8,14.6c0,9.3-6.4,15.5-17.9,15.5
		c-4.5,0-9.1-0.1-11.6-0.1V219h9.9V232.6z M367.4,242v11c1.1,0.1,2,0.2,2.9,0.2c4,0,6.2-1.9,6.2-6c0-3.8-2.5-5.6-6.1-5.6
		C369.6,241.6,368.6,241.8,367.4,242z M391.2,219h9.9v43.4h-9.9V219z"/>
	<path class="st2" d="M412.8,262.4V219h9.9V246l19.2-26.9h8.7v43.4h-9.9v-26.9l-19.2,26.9H412.8z M428.9,207.9
		c0,2.4,1.1,3.1,3.8,3.1c2.4,0,3.6-0.4,3.6-3.1h9.3c0.1,6-5.1,9.9-12.9,9.9c-8.4,0-13.1-4-13.1-9.9H428.9z"/>
	<path class="st2" d="M82.2,293.4h35.9v9.3h-13v34.1h-9.9v-34.1h-13V293.4z"/>
	<path class="st2" d="M134.2,293.4h8.9l18,43.4h-10.6l-3.6-9.1h-17.2l-3.6,9.1h-10L134.2,293.4z M133.5,318.3h9.7l-4.8-12.3
		L133.5,318.3z"/>
	<path class="st2" d="M168.5,336.7v-43.4c2.4,0,9.9-0.1,13.3-0.1c13.2,0,17.5,6.9,17.5,14.4c0,7.7-6,14.6-16,14.6
		c-0.9,0-3.3,0-4.8-0.2v14.7H168.5z M178.4,302.7v9.9c1.4,0.2,3.1,0.3,4.5,0.3c2.6,0,5.8-1.1,5.8-5.3c0-3.8-2.5-5-6-5
		C181.5,302.5,180.5,302.6,178.4,302.7z"/>
	<path class="st2" d="M207.8,336.7v-43.4h9.9v26.9l19.2-26.9h8.7v43.4h-9.9v-26.9l-19.2,26.9H207.8z"/>
	<path class="st2" d="M273.1,331.4c-11.6-0.1-19.3-6.1-19.3-17c0-10.7,7.9-16.7,19.3-17v-4.6h9.9v4.6c11.3,0.2,19.4,6.4,19.4,17
		c0,10.8-7.9,16.8-19.4,17v5.8h-9.9V331.4z M273.1,322.3v-15.7c-6.3,0.2-8.7,3.7-8.7,7.9C264.4,319.4,267.1,322.2,273.1,322.3z
		 M283,306.6v15.7c6.5-0.1,8.9-2.8,8.9-7.9C291.9,310.3,289.7,306.7,283,306.6z"/>
</g>
</svg>
